<?xml version="1.0" encoding="UTF-8"?>
<svg version="1.1" xmlns="http://www.w3.org/2000/svg" width="1024" height="1024">
<path d="M0 0 C337.92 0 675.84 0 1024 0 C1024 337.92 1024 675.84 1024 1024 C686.08 1024 348.16 1024 0 1024 C0 686.08 0 348.16 0 0 Z " fill="#FDFEFE" transform="translate(0,0)"/>
<path d="M0 0 C28.05 0 56.1 0 85 0 C84.34 2.31 83.68 4.62 83 7 C108.74 7 134.48 7 161 7 C158.75346687 12.61633282 158.75346687 12.61633282 156.53125 15.4609375 C156.04769043 16.0895166 155.56413086 16.7180957 155.06591797 17.36572266 C154.29078857 18.36031494 154.29078857 18.36031494 153.5 19.375 C148.98440967 25.27499133 144.7266563 31.27063686 140.65698242 37.48486328 C137.41711685 42.41851677 134.01306798 47.21395637 130.54956055 51.99243164 C127.3740955 56.40150337 124.46232521 60.93560653 121.66796875 65.59765625 C120 68 120 68 117.60546875 70.359375 C114.60637506 73.39893622 112.42407093 76.60990582 110.125 80.1875 C109.24570772 81.53184961 108.3654975 82.87559926 107.484375 84.21875 C106.84725586 85.19328125 106.84725586 85.19328125 106.19726562 86.1875 C104.6346297 88.55312176 103.01285759 90.87346267 101.375 93.1875 C98.08579077 97.8407178 94.93441199 102.57943143 91.796875 107.3359375 C88.50673899 112.21392176 88.50673899 112.21392176 87 114 C86.34 114 85.68 114 85 114 C84.8453125 115.11375 84.8453125 115.11375 84.6875 116.25 C83.9424788 119.23008479 82.86812663 120.60879792 81 123 C80.70738281 123.77472656 80.41476562 124.54945313 80.11328125 125.34765625 C78.93673886 128.1507169 77.54219163 130.08914955 75.625 132.4375 C72.82848721 135.88078337 70.49100402 139.26349397 68 143 C112.55 143.495 112.55 143.495 158 144 C156.46887534 147.06224932 155.44819042 148.83850679 153.27734375 151.28515625 C152.74359131 151.89238525 152.20983887 152.49961426 151.65991211 153.12524414 C151.09151611 153.76453857 150.52312012 154.40383301 149.9375 155.0625 C148.74880878 156.41562113 147.56131318 157.7697935 146.375 159.125 C145.79492188 159.78757812 145.21484375 160.45015625 144.6171875 161.1328125 C142.50686101 163.56937304 140.46557686 166.05722858 138.4375 168.5625 C133.58977759 174.54253713 128.57289793 180.37039973 123.54833984 186.20166016 C121.02707094 189.13002136 118.51377535 192.06520634 116 195 C112.96894643 198.53870795 109.93599066 202.07569726 106.89453125 205.60546875 C102.39119302 210.83673411 97.90970257 216.07489245 93.5625 221.4375 C88.40813208 227.78276881 83.02637235 233.92509448 77.65966797 240.09033203 C71.45127377 247.23391241 65.27176028 254.39645872 59.3125 261.75 C55.75732096 266.13151795 52.03230463 270.31710681 48.234375 274.48828125 C45.99865467 277.00151232 43.86622318 279.57311479 41.75 282.1875 C38.14529915 286.63852192 34.44629733 290.99198605 30.6875 295.3125 C30.13642578 295.94599365 29.58535156 296.5794873 29.01757812 297.23217773 C27.89837515 298.51831655 26.77907163 299.80436788 25.65966797 301.09033203 C19.45127377 308.23391241 13.27176028 315.39645872 7.3125 322.75 C3.75904431 327.12939404 0.037352 331.31395765 -3.76171875 335.48046875 C-6.02847158 338.03204917 -8.17540087 340.65171532 -10.3125 343.3125 C-14.25545341 348.19622826 -18.45137714 352.77377368 -22.74462891 357.34570312 C-26.48549749 361.35958353 -29.77627172 365.55648265 -33 370 C-33.33 370 -33.66 370 -34 370 C-33.6298181 365.83545363 -32.82385584 362.30070189 -31.328125 358.39453125 C-29.51305409 353.49602175 -27.85083134 348.56507936 -26.25 343.59375 C-25.99699127 342.80877136 -25.74398254 342.02379272 -25.48330688 341.21502686 C-24.94076113 339.5301627 -24.39854695 337.84519174 -23.85662842 336.16012573 C-17.74760496 317.1895077 -11.43671151 298.2885665 -5.04345703 279.41226196 C-4.3785469 277.44797828 -3.71476075 275.48331806 -3.05126953 273.51855469 C-1.79571184 269.80146971 -0.53498282 266.08615115 0.7265625 262.37109375 C1.09899078 261.26853745 1.47141907 260.16598114 1.85513306 259.03001404 C3.79067438 253.34895811 5.85471341 247.75618298 8.11895752 242.19813538 C9.27174103 239.32202637 10.27776545 236.40907372 11.25390625 233.46875 C11.63353516 232.32792969 12.01316406 231.18710937 12.40429688 230.01171875 C12.78650391 228.85285156 13.16871094 227.69398438 13.5625 226.5 C13.94857422 225.34113281 14.33464844 224.18226563 14.73242188 222.98828125 C16.93403785 216.34967771 18.98856423 209.7047859 21 203 C-5.4 203 -31.8 203 -59 203 C-58.30678357 198.14748498 -57.60011265 194.24571017 -56.1796875 189.66796875 C-55.81286865 188.47067139 -55.4460498 187.27337402 -55.06811523 186.03979492 C-54.87369843 185.41237396 -54.67928162 184.784953 -54.47897339 184.13851929 C-51.2499836 173.70789192 -48.20221944 163.25215789 -45.4375 152.6875 C-42.93087372 143.14560928 -40.05888407 133.77714595 -36.98461914 124.40429688 C-34.19379573 115.81215661 -31.81249166 107.14152441 -29.51049805 98.4074707 C-26.34539781 86.42225478 -22.73366801 74.58796125 -19.0625 62.75 C-17.2073201 56.74749644 -15.44460764 50.71926192 -13.6875 44.6875 C-13.39012939 43.66688477 -13.09275879 42.64626953 -12.78637695 41.59472656 C-11.21570536 36.1968784 -9.65272471 30.79689503 -8.09765625 25.39453125 C-7.6332312 23.78735229 -7.6332312 23.78735229 -7.15942383 22.14770508 C-6.56935179 20.105343 -5.98179754 18.06225116 -5.3972168 16.01831055 C-5.1269165 15.08414307 -4.85661621 14.14997559 -4.578125 13.1875 C-4.34512695 12.37667969 -4.11212891 11.56585938 -3.87207031 10.73046875 C-2.71516061 7.10816243 -1.33517167 3.5604578 0 0 Z " fill="#7E7F80" transform="translate(474,224)"/>
<path d="M0 0 C28.05 0 56.1 0 85 0 C83.6034487 3.49137824 82.24608847 6.54689677 80.4609375 9.80859375 C79.96698486 10.71351563 79.47303223 11.6184375 78.96411133 12.55078125 C78.43970459 13.50339844 77.91529785 14.45601562 77.375 15.4375 C76.83447998 16.42234375 76.29395996 17.4071875 75.73706055 18.421875 C74.16280014 21.2839109 72.58295649 24.14276613 71 27 C70.60409668 27.71559082 70.20819336 28.43118164 69.80029297 29.16845703 C65.54435642 36.83071983 61.00040565 44.23887334 56.17578125 51.55078125 C51.68094321 58.52436002 47.95015635 65.95939696 44.125 73.3125 C39.70990834 81.74662605 35.26148436 90.1571899 29.9375 98.0625 C28.12103632 100.81649332 26.56274835 103.5966396 25 106.5 C22.84801077 110.49271818 20.57156936 114.25953548 18 118 C13.48367144 124.82203314 9.37476713 131.81481415 5.40307617 138.96118164 C2.46708945 144.22415003 -0.65188226 149.35016199 -3.83984375 154.46484375 C-6.46278283 158.71555885 -8.94556104 163.04664679 -11.4375 167.375 C-20.86446985 183.74567438 -20.86446985 183.74567438 -24.89257812 190.07714844 C-26.09431037 192.07173099 -26.09431037 192.07173099 -27.10742188 194.63378906 C-28.4870043 197.59287822 -29.66739469 199.70390648 -32 202 C-36.67241498 203.23887781 -41.08321724 202.94944362 -45.875 202.625 C-47.13570313 202.57988281 -48.39640625 202.53476562 -49.6953125 202.48828125 C-52.80173693 202.37061366 -55.89842434 202.20651754 -59 202 C-57.494865 194.71881393 -55.47299977 187.67380148 -53.3125 180.5625 C-50.54816376 171.37108199 -47.93725783 162.15828183 -45.5 152.875 C-42.96967557 143.27220545 -40.07933341 133.83951651 -36.98486328 124.4050293 C-34.1939441 115.81264736 -31.81255776 107.1417752 -29.51049805 98.4074707 C-26.34539781 86.42225478 -22.73366801 74.58796125 -19.0625 62.75 C-17.2073201 56.74749644 -15.44460764 50.71926192 -13.6875 44.6875 C-13.39012939 43.66688477 -13.09275879 42.64626953 -12.78637695 41.59472656 C-11.21570536 36.1968784 -9.65272471 30.79689503 -8.09765625 25.39453125 C-7.6332312 23.78735229 -7.6332312 23.78735229 -7.15942383 22.14770508 C-6.56935179 20.105343 -5.98179754 18.06225116 -5.3972168 16.01831055 C-5.1269165 15.08414307 -4.85661621 14.14997559 -4.578125 13.1875 C-4.34512695 12.37667969 -4.11212891 11.56585938 -3.87207031 10.73046875 C-2.71516061 7.10816243 -1.33517167 3.5604578 0 0 Z " fill="#1A4772" transform="translate(474,224)"/>
<path d="M0 0 C2.36762802 0.07529902 4.73548505 0.14373018 7.10351562 0.20507812 C12.8865308 0.36982719 18.66095287 0.62020745 24.4375 0.9375 C23.09458754 3.70529864 21.75963344 5.91807912 19.71484375 8.22265625 C18.91421509 9.13349976 18.91421509 9.13349976 18.09741211 10.06274414 C17.24481812 11.02168579 17.24481812 11.02168579 16.375 12 C15.18630878 13.35312113 13.99881318 14.7072935 12.8125 16.0625 C11.94238281 17.05636719 11.94238281 17.05636719 11.0546875 18.0703125 C8.94436101 20.50687304 6.90307686 22.99472858 4.875 25.5 C0.02727759 31.48003713 -4.98960207 37.30789973 -10.01416016 43.13916016 C-12.53542906 46.06752136 -15.04872465 49.00270634 -17.5625 51.9375 C-20.59355357 55.47620795 -23.62650934 59.01319726 -26.66796875 62.54296875 C-31.17130698 67.77423411 -35.65279743 73.01239245 -40 78.375 C-45.15436792 84.72026881 -50.53612765 90.86259448 -55.90283203 97.02783203 C-62.11122623 104.17141241 -68.29073972 111.33395872 -74.25 118.6875 C-77.80517904 123.06901795 -81.53019537 127.25460681 -85.328125 131.42578125 C-87.56384533 133.93901232 -89.69627682 136.51061479 -91.8125 139.125 C-95.41720085 143.57602192 -99.11620267 147.92948605 -102.875 152.25 C-103.42607422 152.88349365 -103.97714844 153.5169873 -104.54492188 154.16967773 C-105.66412485 155.45581655 -106.78342837 156.74186788 -107.90283203 158.02783203 C-114.11122623 165.17141241 -120.29073972 172.33395872 -126.25 179.6875 C-129.80345569 184.06689404 -133.525148 188.25145765 -137.32421875 192.41796875 C-139.59097158 194.96954917 -141.73790087 197.58921532 -143.875 200.25 C-147.82858482 205.14160582 -152.00820349 209.76692901 -156.3137207 214.34692383 C-159.5319482 217.77728268 -162.58153803 221.29833292 -165.5625 224.9375 C-165.8925 224.2775 -166.2225 223.6175 -166.5625 222.9375 C-165.09327134 220.31687582 -163.57469634 217.82529995 -161.9375 215.3125 C-161.27814453 214.28189453 -161.27814453 214.28189453 -160.60546875 213.23046875 C-158.80135434 210.41054798 -156.98884954 207.59611849 -155.16967773 204.78588867 C-153.02391699 201.42606363 -151.12104264 198.3101535 -149.875 194.5 C-147.90787462 189.30058562 -145.23042667 184.60186121 -142.4375 179.8125 C-141.99317627 179.04107666 -141.54885254 178.26965332 -141.09106445 177.47485352 C-140.66656006 176.75869873 -140.24205566 176.04254395 -139.8046875 175.3046875 C-139.4216748 174.65612793 -139.03866211 174.00756836 -138.64404297 173.33935547 C-138.1086792 172.64543701 -138.1086792 172.64543701 -137.5625 171.9375 C-136.9025 171.9375 -136.2425 171.9375 -135.5625 171.9375 C-135.32917969 170.95007813 -135.09585937 169.96265625 -134.85546875 168.9453125 C-133.56594126 164.45400466 -131.34830522 160.74747282 -128.875 156.8125 C-128.46572266 156.12285156 -128.05644531 155.43320312 -127.63476562 154.72265625 C-124.97363256 150.44685719 -122.37791281 147.88547079 -118.18481445 145.13671875 C-115.568749 143.20291687 -114.16394403 140.7641288 -112.5 138 C-111.73100788 136.74966826 -110.96143637 135.49969275 -110.19140625 134.25 C-109.7752002 133.56421875 -109.35899414 132.8784375 -108.93017578 132.171875 C-106.32279188 127.91218606 -103.6224383 123.71105499 -100.9375 119.5 C-100.34525635 118.56768555 -99.7530127 117.63537109 -99.14282227 116.67480469 C-94.79158325 109.83308059 -90.37800176 103.03405245 -85.9375 96.25 C-79.84995921 86.94600096 -73.86175299 77.58528772 -67.95898438 68.16308594 C-66.54537752 65.9102118 -65.12489809 63.66179019 -63.703125 61.4140625 C-62.80192784 59.98447301 -61.90087915 58.55478991 -61 57.125 C-60.59418701 56.48506104 -60.18837402 55.84512207 -59.77026367 55.18579102 C-57.47497007 51.52999834 -55.42819884 47.82983657 -53.5625 43.9375 C-52.9025 43.9375 -52.2425 43.9375 -51.5625 43.9375 C-51.28921875 43.20917969 -51.0159375 42.48085938 -50.734375 41.73046875 C-49.61155484 39.05441405 -48.33063354 36.7190075 -46.8125 34.25 C-45.16987074 31.56717275 -43.53222292 28.88584656 -41.94140625 26.171875 C-41.42449219 25.29015625 -40.90757812 24.4084375 -40.375 23.5 C-39.67310547 22.29537109 -39.67310547 22.29537109 -38.95703125 21.06640625 C-37.5625 18.9375 -37.5625 18.9375 -36.16845703 17.78125 C-34.29350718 15.84093502 -34.29350718 15.84093502 -33.19946289 12.39624023 C-27.01876501 -3.17753002 -14.75606512 -0.81335865 0 0 Z " fill="#1C4771" transform="translate(607.5625,367.0625)"/>
<path d="M0 0 C0.99 0 1.98 0 3 0 C0.19021731 5.78125474 -3.12138597 11.29886182 -6.3125 16.875 C-6.67169525 17.50313599 -7.0308905 18.13127197 -7.40097046 18.77844238 C-13.55893234 29.54178397 -19.81381615 40.24389339 -26.15673828 50.89941406 C-28.2540651 54.42736778 -30.34400661 57.9596467 -32.43359375 61.4921875 C-40.20226674 74.61851062 -48.00984933 87.71897218 -55.9375 100.75 C-56.28762146 101.32577789 -56.63774292 101.90155579 -56.99847412 102.49478149 C-59.94686151 107.34324648 -62.89677432 112.19077972 -65.85107422 117.03564453 C-67.5300723 119.79198042 -69.20327088 122.55175137 -70.875 125.3125 C-71.35702881 126.10043945 -71.83905762 126.88837891 -72.33569336 127.70019531 C-74.9485295 132.02691906 -77.12639011 136.30356726 -79 141 C-79.66 141 -80.32 141 -81 141 C-81.22816406 141.64195312 -81.45632813 142.28390625 -81.69140625 142.9453125 C-83.82216463 147.91920221 -86.60350631 152.53322942 -89.27929688 157.23046875 C-91.18920366 160.61763578 -92.96182753 163.90903581 -94.46875 167.5 C-96.431343 171.98592686 -98.95377389 175.9908033 -101.5625 180.125 C-104.4255066 184.67146941 -107.08850266 188.95973338 -109 194 C-109.99 194.99 -109.99 194.99 -111 196 C-110.6298181 191.83545363 -109.82385584 188.30070189 -108.328125 184.39453125 C-106.51305409 179.49602175 -104.85083134 174.56507936 -103.25 169.59375 C-102.99699127 168.80877136 -102.74398254 168.02379272 -102.48330688 167.21502686 C-101.94076113 165.5301627 -101.39854695 163.84519174 -100.85662842 162.16012573 C-94.74760496 143.1895077 -88.43671151 124.2885665 -82.04345703 105.41226196 C-81.3785469 103.44797828 -80.71476075 101.48331806 -80.05126953 99.51855469 C-78.79571184 95.80146971 -77.53498282 92.08615115 -76.2734375 88.37109375 C-75.71479507 86.71725929 -75.71479507 86.71725929 -75.14486694 85.03001404 C-73.20932562 79.34895811 -71.14528659 73.75618298 -68.88104248 68.19813538 C-67.72825897 65.32202637 -66.72223455 62.40907372 -65.74609375 59.46875 C-65.36646484 58.32792969 -64.98683594 57.18710937 -64.59570312 56.01171875 C-64.21349609 54.85285156 -63.83128906 53.69398438 -63.4375 52.5 C-63.05142578 51.34113281 -62.66535156 50.18226563 -62.26757812 48.98828125 C-60.06596215 42.34967771 -58.01143577 35.7047859 -56 29 C-82.4 29 -108.8 29 -136 29 C-136 28.67 -136 28.34 -136 28 C-135.02821304 28.01411926 -134.05642609 28.02823853 -133.05519104 28.04278564 C-123.77690067 28.16947636 -114.50006413 28.23018497 -105.22088718 28.23059464 C-100.45302668 28.23280992 -95.6874613 28.25616407 -90.92016602 28.33251953 C-68.73356583 28.67102499 -50.83371596 28.55552597 -31.44699097 16.49395752 C-27.90805695 14.33333774 -24.21059946 12.57674356 -20.46875 10.80078125 C-18.14480397 9.64007954 -15.82183426 8.47742029 -13.5 7.3125 C-12.27350058 6.70104533 -11.04693774 6.08971785 -9.8203125 5.47851562 C-8.67304687 4.90423828 -7.52578125 4.32996094 -6.34375 3.73828125 C-5.33505859 3.23337158 -4.32636719 2.72846191 -3.28710938 2.20825195 C-1.09643167 1.19474007 -1.09643167 1.19474007 0 0 Z " fill="#9FA0A2" transform="translate(551,398)"/>
<path d="M0 0 C3.2669012 -0.66805426 4.83244771 -0.85847795 8 0 C11.57100525 2.72772037 14.5908262 5.91277368 17.63284302 9.20181274 C20.13883262 11.90686695 22.71462568 14.543951 25.28515625 17.1875 C25.78476364 17.70427811 26.28437103 18.22105621 26.79911804 18.75349426 C32.41527386 24.52707047 38.46468003 29.33076027 45 34 C46.08616601 34.81306345 47.17077634 35.62820884 48.25390625 36.4453125 C81.1057781 60.92703614 118.23797245 75.29460322 158 84 C158.89364258 84.19932129 159.78728516 84.39864258 160.70800781 84.60400391 C173.53605465 87.33343125 186.50606408 87.27627612 199.5625 87.3125 C200.42315063 87.31635712 201.28380127 87.32021423 202.17053223 87.32418823 C219.06929507 87.361443 235.84489829 86.32305454 252.375 82.625 C253.39045898 82.40440918 254.40591797 82.18381836 255.45214844 81.95654297 C263.07384192 80.27217063 270.57013685 78.4076728 278 76 C279.05622559 75.66476318 279.05622559 75.66476318 280.13378906 75.32275391 C310.44246182 65.61040567 339.6851107 50.70984262 364 30 C365.09601133 29.08812944 366.19239319 28.17670412 367.2890625 27.265625 C376.24068999 19.77083825 385.44872197 11.99830471 392.5390625 2.671875 C395 0 395 0 397.45703125 -0.5859375 C398.23433594 -0.51632812 399.01164062 -0.44671875 399.8125 -0.375 C400.99779297 -0.29378906 400.99779297 -0.29378906 402.20703125 -0.2109375 C402.79871094 -0.14132812 403.39039063 -0.07171875 404 0 C402.49199698 5.3872108 398.84640837 8.7128393 395.0625 12.625 C394.04651733 13.68787231 394.04651733 13.68787231 393.01000977 14.7722168 C391.64349337 16.19754979 390.27333941 17.61940502 388.89941406 19.03759766 C387.27376004 20.71716154 385.66197582 22.40838463 384.0546875 24.10546875 C377.23368261 31.16062754 369.85953779 37.1641274 362 43 C361.03731201 43.72123047 361.03731201 43.72123047 360.05517578 44.45703125 C314.16400871 78.61907853 258.59642679 96.46305508 201.5 96.4375 C200.5679071 96.43790283 199.63581421 96.43830566 198.67547607 96.4387207 C162.57076858 96.34963206 128.01510355 88.80172665 95 74 C93.54694832 73.36962263 92.09382667 72.73940652 90.640625 72.109375 C66.12451714 61.24679158 43.88272716 45.88747397 24 28 C23.1352002 27.227771 23.1352002 27.227771 22.25292969 26.43994141 C16.30250662 21.11162303 10.48196991 15.76747123 5.3671875 9.609375 C3.90066851 7.81736752 3.90066851 7.81736752 1.5625 5.75 C0 4 0 4 0 0 Z " fill="#8C8D8C" transform="translate(303,717)"/>
<path d="M0 0 C-0.0625 3.25 -0.0625 3.25 -1 7 C-4.97793472 10.14534373 -9.22898761 11.44139422 -14 13.0625 C-38.88830801 21.74569548 -61.40758133 35.7261057 -82 52 C-83.01578125 52.79148437 -84.0315625 53.58296875 -85.078125 54.3984375 C-90.79686772 58.95106787 -95.96555245 63.83258873 -101.00390625 69.12890625 C-103 71 -103 71 -105 71 C-105.25136719 71.58394531 -105.50273437 72.16789062 -105.76171875 72.76953125 C-107.15799438 75.28458924 -108.69156703 76.7475743 -110.8125 78.6875 C-120.79575208 88.49532753 -128.66814042 100.29615467 -136.4375 111.875 C-137.00428467 112.71772461 -137.57106934 113.56044922 -138.1550293 114.42871094 C-143.77365457 122.92674687 -148.52836193 131.85529873 -153 141 C-154.40080649 143.85764524 -155.77217327 146.63632202 -157.46166992 149.33325195 C-164.73236181 161.93724616 -168.07981296 178.23950668 -171.375 192.3125 C-171.60098877 193.26213623 -171.82697754 194.21177246 -172.05981445 195.19018555 C-176.37764998 214.57430431 -177.41676521 233.57167684 -177.1875 253.375 C-177.17239954 255.68358485 -177.15872078 257.99217945 -177.14648438 260.30078125 C-177.11396457 265.86740618 -177.06420578 271.43365482 -177 277 C-183.15234375 277.09765625 -183.15234375 277.09765625 -185 277 C-186.5460852 275.4539148 -186.14231387 273.99809686 -186.16113281 271.84521484 C-186.17074036 270.95853119 -186.1803479 270.07184753 -186.19024658 269.15829468 C-186.19449646 268.18566681 -186.19874634 267.21303894 -186.203125 266.2109375 C-186.20882507 265.20149078 -186.21452515 264.19204407 -186.22039795 263.15200806 C-186.22988171 260.99474134 -186.23639522 258.83745992 -186.24023438 256.68017578 C-186.24973442 253.46488448 -186.28063247 250.25029141 -186.3125 247.03515625 C-186.48220255 213.99100758 -186.48220255 213.99100758 -181 199 C-180.6513554 197.57636786 -180.32607504 196.14668111 -180.03125 194.7109375 C-171.18699581 153.62629157 -153.02465875 115.18892563 -126 83 C-125.57283691 82.48405273 -125.14567383 81.96810547 -124.70556641 81.43652344 C-114.18793146 68.75102005 -103.045924 57.11895387 -90 47 C-88.73416061 45.99375922 -87.46855135 44.98722891 -86.203125 43.98046875 C-64.64216047 26.98940806 -28.49544575 0 0 0 Z " fill="#939494" transform="translate(429,300)"/>
<path d="M0 0 C6.26884153 0.99605715 11.50272158 3.98523725 17.125 6.8125 C18.28483398 7.39563965 19.44466797 7.9787793 20.63964844 8.57958984 C35.57969809 16.2062276 49.47526904 24.94719898 62.38671875 35.66308594 C63.97577967 36.97992879 65.58012755 38.2759235 67.1875 39.5703125 C80.04190784 50.0472655 91.89438755 61.84694116 102 75 C102.9897733 76.23917035 103.980749 77.47738088 104.97265625 78.71484375 C118.6184851 95.92726633 131.2405997 115.13537475 138.82421875 135.8359375 C139.93852546 138.83457018 141.16445298 141.75342973 142.4375 144.6875 C148.27972006 158.67952548 152.13661566 173.01506714 155.46899414 187.77954102 C155.93189245 189.71520083 156.48036351 191.62999752 157.04296875 193.5390625 C158.20063881 197.72557546 158.90401315 201.89862533 159.5625 206.1875 C159.68818359 206.96158203 159.81386719 207.73566406 159.94335938 208.53320312 C161.60043032 219.12631111 162.17250149 229.66133142 162.125 240.375 C162.12101196 242.00211914 162.12101196 242.00211914 162.11694336 243.66210938 C161.98500388 266.01499612 161.98500388 266.01499612 160 268 C157.32941149 268.14115161 154.67567762 268.04247107 152 268 C152.00666183 267.41214218 152.01332367 266.82428436 152.02018738 266.21861267 C152.08776443 259.97042448 152.13229371 253.72234362 152.16479492 247.47387695 C152.17966753 245.15742767 152.19997175 242.8410054 152.22631836 240.5246582 C152.4607109 219.3511991 151.35597442 197.74591046 145.5 177.25 C145.2421875 176.33992187 144.984375 175.42984375 144.71875 174.4921875 C144.4815625 173.66976562 144.244375 172.84734375 144 172 C143.67 170.80375 143.34 169.6075 143 168.375 C142.67 167.26125 142.34 166.1475 142 165 C141.80921875 164.33871094 141.6184375 163.67742187 141.421875 162.99609375 C139.770865 157.63031125 137.48874622 152.79145873 134.91796875 147.80859375 C133.39561626 144.83043521 131.96483008 141.81618859 130.55078125 138.78515625 C113.35935437 101.97365743 89.76422197 67.75330612 57 43 C56.36497559 42.505 55.72995117 42.01 55.07568359 41.5 C39.06652906 29.03087206 21.67549732 17.25255333 2.5559082 10.12719727 C-1.77982918 8.44894205 -1.77982918 8.44894205 -3 5.9609375 C-3 3.20397193 -1.79226978 2.00734216 0 0 Z " fill="#919292" transform="translate(606,309)"/>
<path d="M0 0 C4.95 0 9.9 0 15 0 C15 11.55 15 23.1 15 35 C15.66 35 16.32 35 17 35 C17.40182495 34.10812988 17.40182495 34.10812988 17.81176758 33.19824219 C19.01210673 30.97760243 20.20702998 29.5756393 22.01171875 27.828125 C22.89597534 26.96127075 22.89597534 26.96127075 23.7980957 26.0769043 C24.42159912 25.47402588 25.04510254 24.87114746 25.6875 24.25 C31.42235006 18.63252643 31.42235006 18.63252643 36.8125 12.6875 C37.33714844 12.09324219 37.86179688 11.49898437 38.40234375 10.88671875 C39.59641721 9.47660266 40.72472268 8.01032494 41.81640625 6.51953125 C46.80306938 0.41630978 46.80306938 0.41630978 51.06396484 -0.39111328 C56.07322699 -0.77430636 61.00609863 -0.46441563 66 0 C60.85544902 6.10915429 55.42650538 11.89959303 49.921875 17.68359375 C45.81307849 22.01978549 41.84807782 26.43040758 38 31 C39.6001767 36.22108935 42.89678726 39.99031527 46.25 44.1875 C47.50789993 45.78378527 48.76570962 47.38014166 50.0234375 48.9765625 C50.6740918 49.79801758 51.32474609 50.61947266 51.99511719 51.46582031 C55.3061037 55.65092016 58.59172754 59.85564792 61.875 64.0625 C62.48762695 64.84197998 63.10025391 65.62145996 63.73144531 66.42456055 C64.29186523 67.14168213 64.85228516 67.85880371 65.4296875 68.59765625 C65.92710449 69.23195557 66.42452148 69.86625488 66.93701172 70.51977539 C68 72 68 72 68 73 C53.40902 75.35813818 53.40902 75.35813818 48.03271484 71.63916016 C44.2638761 67.92643315 41.34037452 63.59358804 38.45068359 59.18164062 C36.23383125 55.84778123 33.77219352 52.7185965 31.3125 49.5625 C30.52488281 48.51191406 29.73726562 47.46132813 28.92578125 46.37890625 C27.22177252 43.93846836 27.22177252 43.93846836 25 43 C24.74347656 43.60714844 24.48695313 44.21429687 24.22265625 44.83984375 C22.86694462 47.23507868 21.6633666 48.00578745 19.4375 49.5625 C15.08118428 53.62959974 15.25726511 58.312043 15.0625 63.9375 C14.99115952 66.96239201 14.97883624 69.97358234 15 73 C10.05 73 5.1 73 0 73 C0 48.91 0 24.82 0 0 Z " fill="#193A60" transform="translate(214,614)"/>
<path d="M0 0 C3.07148535 -0.43108566 5.03001791 -0.67571021 8 0 C10.0605878 1.74905185 11.57289084 3.65628731 13.23046875 5.7890625 C15.50413895 8.62989547 18.09921094 10.83519709 20.87109375 13.17578125 C22.31052216 14.40919972 23.71932121 15.67913567 25.09765625 16.98046875 C63.9156229 53.53460887 121.29558297 76.4002207 174.5546875 77.30859375 C175.88486404 77.33182709 175.88486404 77.33182709 177.24191284 77.35552979 C234.04813008 78.15938261 288.21511986 63.95301494 334 29 C334.55671387 28.58459961 335.11342773 28.16919922 335.68701172 27.74121094 C346.52724755 19.65037736 356.43910211 10.56089789 366 1 C369.625 0.875 369.625 0.875 373 1 C368.90178675 6.84315938 364.41173593 11.83460644 359.1875 16.6875 C358.07761719 17.72233521 358.07761719 17.72233521 356.9453125 18.77807617 C349.3661205 25.73929471 341.39127451 32.0496453 333 38 C332.34128906 38.46712402 331.68257812 38.93424805 331.00390625 39.41552734 C296.77655981 63.31536505 256.44580134 78.39381971 215 83 C213.87078125 83.13019531 212.7415625 83.26039063 211.578125 83.39453125 C179.52194276 86.32649914 145.87359941 83.67210335 115.19873047 73.70507812 C112.86097945 72.95541957 110.51205088 72.25081819 108.16015625 71.546875 C74.98029129 61.35773256 43.16679417 42.93187534 18 19 C16.65217799 17.82600924 15.29840945 16.65879418 13.9375 15.5 C9.06864717 11.25873319 4.29998926 6.81986501 0 2 C0 1.34 0 0.68 0 0 Z " fill="#7A7E83" transform="translate(318,716)"/>
<path d="M0 0 C0.70036377 0.00612305 1.40072754 0.01224609 2.12231445 0.01855469 C7.90317652 0.19261654 12.28093047 1.33039082 17.125 4.4375 C18.48625 5.30375 18.48625 5.30375 19.875 6.1875 C25.33302851 11.64552851 28.31071932 17.75652403 29.125 25.4375 C29.125 28.0775 29.125 30.7175 29.125 33.4375 C14.935 33.4375 0.745 33.4375 -13.875 33.4375 C-10.09728103 40.63572848 -10.09728103 40.63572848 -3.875 44.4375 C2.94275624 45.34378784 8.04477238 44.47761381 14.125 41.4375 C17.0625 40.75 17.0625 40.75 19.125 40.4375 C20.053125 41.6440625 20.053125 41.6440625 21 42.875 C22.86664041 45.47624519 22.86664041 45.47624519 25.125 46.4375 C22.69083246 52.24490479 17.5817492 54.40566534 12 56.75 C1.31503282 58.64571998 -8.42390059 58.25974832 -17.6796875 52.26953125 C-24.37661998 47.12188912 -28.17658583 39.71363874 -29.26953125 31.45703125 C-29.70817461 22.91878728 -27.82356527 16.43483433 -22.875 9.4375 C-16.65091206 3.075099 -8.89519086 -0.132876 0 0 Z " fill="#AAA9A9" transform="translate(769.875,630.5625)"/>
<path d="M0 0 C7.00943452 4.21521361 10.76713609 9.78427219 14.375 17 C14.375 21.62 14.375 26.24 14.375 31 C0.515 31 -13.345 31 -27.625 31 C-24.81930576 36.61138848 -23.09792095 39.26353952 -17.625 42 C-10.38458639 42.77973685 -5.04489889 42.57207511 0.8515625 38.09375 C2.375 37 2.375 37 4.375 37 C5.91796875 38.390625 5.91796875 38.390625 7.5625 40.25 C8.11292969 40.85328125 8.66335938 41.4565625 9.23046875 42.078125 C10.375 44 10.375 44 10.2734375 46.0703125 C8.54789578 49.77647602 4.91149686 51.24416033 1.375 53 C-7.9446037 56.31714708 -18.37191002 56.46882482 -27.41015625 52.25 C-35.78903678 47.52117854 -39.61285394 41.03643817 -42.625 32 C-43.60239083 22.04457627 -42.26219533 14.8527708 -36.015625 6.96875 C-34.31809451 5.13105644 -32.58027694 3.55843426 -30.625 2 C-29.81869141 1.34837891 -29.81869141 1.34837891 -28.99609375 0.68359375 C-21.25668557 -4.28555647 -8.20420436 -3.71202498 0 0 Z " fill="#2B5E8F" transform="translate(480.625,633)"/>
<path d="M0 0 C4.33291005 3.33513972 8.08904651 7.18120202 9.83203125 12.41015625 C9.91770371 13.77607808 9.94976772 15.14580483 9.94555664 16.5144043 C9.94548111 17.33502853 9.94540558 18.15565277 9.94532776 19.00114441 C9.94016647 19.8824855 9.93500519 20.7638266 9.9296875 21.671875 C9.92827255 22.577668 9.9268576 23.483461 9.92539978 24.41670227 C9.91980126 27.31038716 9.90724906 30.20399474 9.89453125 33.09765625 C9.88951606 35.05924367 9.88495318 37.02083231 9.88085938 38.98242188 C9.86983232 43.79169646 9.85256872 48.60091325 9.83203125 53.41015625 C5.54203125 53.41015625 1.25203125 53.41015625 -3.16796875 53.41015625 C-3.16796875 51.43015625 -3.16796875 49.45015625 -3.16796875 47.41015625 C-3.82796875 47.41015625 -4.48796875 47.41015625 -5.16796875 47.41015625 C-5.49796875 48.40015625 -5.82796875 49.39015625 -6.16796875 50.41015625 C-12.31286866 54.68300525 -18.92293381 55.12476516 -26.16796875 54.41015625 C-32.79701106 53.21475518 -36.75909488 50.30080489 -41.04296875 45.16015625 C-42.67064307 41.18139679 -42.84162062 37.64667801 -42.16796875 33.41015625 C-39.52315713 28.21848899 -36.0645815 24.72764785 -30.74609375 22.30859375 C-25.58334885 21.01227134 -20.59188318 21.20032141 -15.29296875 21.28515625 C-14.22304688 21.29417969 -13.153125 21.30320312 -12.05078125 21.3125 C-9.42294436 21.33596283 -6.79557469 21.36879166 -4.16796875 21.41015625 C-5.45008794 15.66107497 -5.45008794 15.66107497 -9.16796875 11.41015625 C-15.36361183 9.34494189 -22.74955695 9.45113088 -28.79296875 11.84765625 C-29.57671875 12.36328125 -30.36046875 12.87890625 -31.16796875 13.41015625 C-32.15796875 13.74015625 -33.14796875 14.07015625 -34.16796875 14.41015625 C-34.87023016 13.1683893 -35.55425984 11.91630026 -36.23046875 10.66015625 C-36.61332031 9.9640625 -36.99617188 9.26796875 -37.390625 8.55078125 C-38.16796875 6.41015625 -38.16796875 6.41015625 -38.09765625 4.31640625 C-36.29851735 0.62741557 -32.6124769 -0.19224969 -28.96484375 -1.6015625 C-20.02133798 -3.92945032 -8.33084473 -4.58442935 0 0 Z " fill="#162C4C" transform="translate(328.16796875,633.58984375)"/>
<path d="M0 0 C4.62 0 9.24 0 14 0 C14.33 2.31 14.66 4.62 15 7 C16.299375 5.824375 16.299375 5.824375 17.625 4.625 C24.05594156 -0.6299129 30.97603507 -0.65458661 39 0 C44.83112181 1.069039 48.10603931 3.60446808 51.7734375 8.18359375 C54.075544 11.5927642 55.25206435 14.15731778 55.22705078 18.30957031 C55.22689972 19.15013977 55.22674866 19.99070923 55.22659302 20.85675049 C55.21627045 21.75480408 55.20594788 22.65285767 55.1953125 23.578125 C55.1924826 24.5046991 55.18965271 25.43127319 55.18673706 26.38592529 C55.17555611 29.34074909 55.15045527 32.29526805 55.125 35.25 C55.11496751 37.25520395 55.10584213 39.26041266 55.09765625 41.265625 C55.07562358 46.17720051 55.04110795 51.08854859 55 56 C50.38 56 45.76 56 41 56 C40.98541748 55.00145996 40.97083496 54.00291992 40.95581055 52.97412109 C40.89759932 49.25013394 40.82036923 45.52673708 40.73754883 41.80322266 C40.70440637 40.1952476 40.67634146 38.58715919 40.65356445 36.97900391 C40.61982033 34.65999295 40.56749806 32.34201069 40.51171875 30.0234375 C40.50532883 29.31069672 40.4989389 28.59795593 40.49235535 27.86361694 C40.35692083 23.20923115 39.43444996 19.96694633 37 16 C32.84500884 12.99389413 27.90270269 13.62653642 23 14 C20.04023328 14.4951208 20.04023328 14.4951208 18 16 C15.74657735 20.25006923 15.65941796 24.4386109 15.5859375 29.14453125 C15.56657135 29.91431808 15.5472052 30.68410492 15.5272522 31.47721863 C15.46774377 33.92220171 15.42118705 36.36723262 15.375 38.8125 C15.33679369 40.47593134 15.29774043 42.13934347 15.2578125 43.80273438 C15.16048018 47.86838633 15.08068605 51.93384762 15 56 C10.05 56 5.1 56 0 56 C0 37.52 0 19.04 0 0 Z " fill="#214873" transform="translate(508,631)"/>
<path d="M0 0 C0.1875 2.6875 0.1875 2.6875 -1 6 C-4.45002243 8.18584454 -8.18824443 9.5631854 -12 11 C-50.04967037 25.61057604 -85.34908617 51.65922692 -109.77685547 84.37548828 C-110.90261758 85.87066215 -112.06121027 87.34096693 -113.22265625 88.80859375 C-123.48954792 101.94499779 -134.0757089 117.3410808 -140 133 C-141.05903312 135.16836333 -142.12197705 137.33481836 -143.1875 139.5 C-157.90432527 170.70013444 -162.39387412 204.86820666 -162.125 239 C-162.11494395 241.2395793 -162.10582277 243.47916301 -162.09765625 245.71875 C-162.07586508 251.14593115 -162.0425981 256.57294431 -162 262 C-163.98 262 -165.96 262 -168 262 C-169.08854574 253.54967827 -169.20092978 245.13525181 -169.1875 236.625 C-169.18689575 235.91724426 -169.1862915 235.20948853 -169.18566895 234.48028564 C-169.06915083 184.06915083 -169.06915083 184.06915083 -162 177 C-161.814375 175.453125 -161.814375 175.453125 -161.625 173.875 C-161.08151474 170.50539141 -160.18754647 168.09816799 -158.82080078 165.02197266 C-157.9424462 162.85822113 -157.2759468 160.69781718 -156.6328125 158.453125 C-146.34831222 122.63625 -125.93687426 89.65596542 -100 63 C-99.41959961 62.39913574 -98.83919922 61.79827148 -98.24121094 61.17919922 C-90.56303794 53.25895772 -82.82109039 45.65828132 -74 39 C-73.36787598 38.51853516 -72.73575195 38.03707031 -72.08447266 37.54101562 C-22.5261762 0 -22.5261762 0 0 0 Z " fill="#8C8E90" transform="translate(425,315)"/>
<path d="M0 0 C36.14222517 11.16915041 71.03438453 39.19333021 95 68 C95.41443359 68.49000488 95.82886719 68.98000977 96.25585938 69.48486328 C105.15171842 80.04634332 112.68536905 91.30234386 120 103 C120.65613281 104.02222656 121.31226563 105.04445313 121.98828125 106.09765625 C143.7453852 141.35558842 155.52862396 186.28029067 155.20581055 227.52075195 C155.18733026 229.95990309 155.18530342 232.39867603 155.18554688 234.83789062 C155.16825562 242.28021504 155.06899318 249.61967111 154 257 C151.69 257 149.38 257 147 257 C147.0721875 256.36320312 147.144375 255.72640625 147.21875 255.0703125 C149.6913839 229.17634087 148.54556509 202.4959884 142.49658203 177.18237305 C141.95830528 174.81676051 141.50524554 172.44239238 141.0546875 170.05859375 C133.47005939 131.82737352 110.08286067 94.76851987 84.109375 66.33203125 C82.2324734 64.25701226 80.42639548 62.14022939 78.625 60 C58.47072817 36.98631203 28.68204168 17.8707519 0.1953125 7.0078125 C-2 6 -2 6 -3 4 C-2.01 2.68 -1.02 1.36 0 0 Z " fill="#909292" transform="translate(599,320)"/>
<path d="M0 0 C5.28 0 10.56 0 16 0 C16 19.8 16 39.6 16 60 C28.21 60 40.42 60 53 60 C53 64.29 53 68.58 53 73 C35.51 73 18.02 73 0 73 C0 48.91 0 24.82 0 0 Z " fill="#6B6C6D" transform="translate(610,614)"/>
<path d="M0 0 C15.84 0 31.68 0 48 0 C48 10.11310592 48 10.11310592 44.3125 14.125 C43.4978125 15.04152344 42.683125 15.95804688 41.84375 16.90234375 C41.39128906 17.39331543 40.93882812 17.88428711 40.47265625 18.39013672 C38.27200929 20.79581744 36.14382247 23.2626763 34.01049805 25.72802734 C32.91055872 26.99734625 31.8055532 28.26229979 30.69458008 29.52197266 C26.86653998 33.88488635 23.5075928 38.3232096 20 43 C29.57 43 39.14 43 49 43 C49 46.96 49 50.92 49 55 C32.83 55 16.66 55 0 55 C0 43.5378509 0 43.5378509 5.25 38.25 C6.34832857 37.06051628 7.44596375 35.870392 8.54296875 34.6796875 C9.11192871 34.07866211 9.68088867 33.47763672 10.26708984 32.85839844 C13.13358725 29.7843243 15.84058147 26.57676016 18.5625 23.375 C19.06233398 22.79524414 19.56216797 22.21548828 20.07714844 21.61816406 C22.04601142 19.33126435 23.95886763 17.0575291 25.71484375 14.6015625 C26.13894531 14.07304688 26.56304687 13.54453125 27 13 C27.66 13 28.32 13 29 13 C29 12.34 29 11.68 29 11 C19.43 11 9.86 11 0 11 C0 7.37 0 3.74 0 0 Z " fill="#173B64" transform="translate(382,632)"/>
<path d="M0 0 C-0.66 3.3 -1.32 6.6 -2 10 C-2.99 10.33 -3.98 10.66 -5 11 C-5.66 10.67 -6.32 10.34 -7 10 C-10.16956698 9.72438548 -12.37553788 9.72996233 -15.3125 11 C-17.92582638 14.09727571 -17.73785587 17.00230208 -18 21 C-12.72 21 -7.44 21 -2 21 C-2 24.96 -2 28.92 -2 33 C-6.95 33 -11.9 33 -17 33 C-17 47.19 -17 61.38 -17 76 C-21.95 76 -26.9 76 -32 76 C-32 61.81 -32 47.62 -32 33 C-34.97 33 -37.94 33 -41 33 C-41 29.04 -41 25.08 -41 21 C-38.03 21 -35.06 21 -32 21 C-32.04640625 20.27554688 -32.0928125 19.55109375 -32.140625 18.8046875 C-32.37133511 12.62495234 -32.3343502 8.79059759 -28 4 C-19.72172637 -4.11951222 -10.2246152 -5.33458185 0 0 Z " fill="#676766" transform="translate(740,611)"/>
<path d="M0 0 C18.48 0.33 36.96 0.66 56 1 C56 2.65 56 4.3 56 6 C42.14 6 28.28 6 14 6 C17.77771897 13.19822848 17.77771897 13.19822848 24 17 C30.81775624 17.90628784 35.91977238 17.04011381 42 14 C44.9375 13.3125 44.9375 13.3125 47 13 C47.928125 14.2065625 47.928125 14.2065625 48.875 15.4375 C50.74164041 18.03874519 50.74164041 18.03874519 53 19 C50.56583246 24.80740479 45.4567492 26.96816534 39.875 29.3125 C29.19003282 31.20821998 19.45109941 30.82224832 10.1953125 24.83203125 C5.34872439 21.10666875 1.60973725 15.90236991 0 10 C0 6.7 0 3.4 0 0 Z " fill="#575757" transform="translate(742,658)"/>
<path d="M0 0 C43.23176318 13.3600536 79.85274175 48.1257624 107 83 C107.70640625 83.89847656 108.4128125 84.79695313 109.140625 85.72265625 C113.4522213 91.59569514 113.4522213 91.59569514 112.875 96.0625 C112.58625 97.031875 112.2975 98.00125 112 99 C108.68541 97.89513667 108.34592861 97.44730754 106.50390625 94.67578125 C106.03404297 93.98387695 105.56417969 93.29197266 105.08007812 92.57910156 C104.57927734 91.83112305 104.07847656 91.08314453 103.5625 90.3125 C97.87445476 82.04434633 91.71054804 74.45112654 85 67 C84.48373047 66.4220166 83.96746094 65.8440332 83.43554688 65.24853516 C77.62845829 58.76323331 71.78564489 52.4811533 65 47 C64.45972168 46.5580127 63.91944336 46.11602539 63.36279297 45.66064453 C44.23504398 30.02362068 23.41131045 15.86084638 0.1953125 7.0078125 C-2 6 -2 6 -3 4 C-2.01 2.68 -1.02 1.36 0 0 Z " fill="#284666" transform="translate(599,320)"/>
<path d="M0 0 C4.95 0 9.9 0 15 0 C15 18.15 15 36.3 15 55 C10.05 55 5.1 55 0 55 C0 36.85 0 18.7 0 0 Z " fill="#B8B7B8" transform="translate(674,632)"/>
<path d="M0 0 C4.33291005 3.33513972 8.08904651 7.18120202 9.83203125 12.41015625 C9.90254239 15.14880912 9.9256089 17.86043213 9.89453125 20.59765625 C9.89001953 21.34724609 9.88550781 22.09683594 9.88085938 22.86914062 C9.86909479 24.71618008 9.8511599 26.56317838 9.83203125 28.41015625 C6.53203125 28.08015625 3.23203125 27.75015625 -0.16796875 27.41015625 C-0.16796875 26.75015625 -0.16796875 26.09015625 -0.16796875 25.41015625 C-3.13796875 26.07015625 -6.10796875 26.73015625 -9.16796875 27.41015625 C-9.16796875 25.76015625 -9.16796875 24.11015625 -9.16796875 22.41015625 C-15.10796875 22.41015625 -21.04796875 22.41015625 -27.16796875 22.41015625 C-27.16796875 22.08015625 -27.16796875 21.75015625 -27.16796875 21.41015625 C-19.57796875 21.41015625 -11.98796875 21.41015625 -4.16796875 21.41015625 C-5.48471717 15.20355443 -5.48471717 15.20355443 -9.16796875 11.41015625 C-15.36361183 9.34494189 -22.74955695 9.45113088 -28.79296875 11.84765625 C-29.57671875 12.36328125 -30.36046875 12.87890625 -31.16796875 13.41015625 C-32.15796875 13.74015625 -33.14796875 14.07015625 -34.16796875 14.41015625 C-34.87023016 13.1683893 -35.55425984 11.91630026 -36.23046875 10.66015625 C-36.61332031 9.9640625 -36.99617188 9.26796875 -37.390625 8.55078125 C-38.16796875 6.41015625 -38.16796875 6.41015625 -38.09765625 4.31640625 C-36.29851735 0.62741557 -32.6124769 -0.19224969 -28.96484375 -1.6015625 C-20.02133798 -3.92945032 -8.33084473 -4.58442935 0 0 Z " fill="#1E4E7F" transform="translate(328.16796875,633.58984375)"/>
<path d="M0 0 C2.97 -0.103125 5.94 -0.20625 9 -0.3125 C9.91910156 -0.35802002 10.83820312 -0.40354004 11.78515625 -0.45043945 C18.04290291 -0.55442216 22.19838072 0.94430601 27 5 C29.66744254 8.55659006 30.21360186 11.16956025 29.9375 15.5 C29.25586798 19.80733426 27.9230085 22.68199035 25 26 C19.72894261 29.44614726 15.18534221 29.36409068 9.125 29.1875 C6.11375 29.125625 3.1025 29.06375 0 29 C0 19.43 0 9.86 0 0 Z " fill="#666665" transform="translate(774,708)"/>
<path d="M0 0 C3.07148535 -0.43108566 5.03001791 -0.67571021 8 0 C10.0605878 1.74905185 11.57289084 3.65628731 13.23046875 5.7890625 C15.50413895 8.62989547 18.09921094 10.83519709 20.87109375 13.17578125 C22.31052216 14.40919972 23.71932121 15.67913567 25.09765625 16.98046875 C45.57332748 36.2620185 71.98339476 52.12194709 98.56640625 61.3046875 C99.71117432 61.70131592 100.85594238 62.09794434 102.03540039 62.5065918 C104.31235256 63.28269057 106.59670238 64.03747441 108.88842773 64.76879883 C109.92555908 65.1170874 110.96269043 65.46537598 112.03125 65.82421875 C112.96517578 66.12416748 113.89910156 66.42411621 114.86132812 66.7331543 C117 68 117 68 117.81054688 70.63598633 C117.87306641 71.41611084 117.93558594 72.19623535 118 73 C81.93362705 69.3410926 43.7106948 43.4490871 18 19 C16.65217799 17.82600924 15.29840945 16.65879418 13.9375 15.5 C9.06864717 11.25873319 4.29998926 6.81986501 0 2 C0 1.34 0 0.68 0 0 Z " fill="#1B4F8F" transform="translate(318,716)"/>
<path d="M0 0 C4.62 0 9.24 0 14 0 C14 18.15 14 36.3 14 55 C9.38 55 4.76 55 0 55 C0 36.85 0 18.7 0 0 Z " fill="#1D4F82" transform="translate(355,632)"/>
<path d="M0 0 C2.825625 -0.0825 5.65125 -0.165 8.5625 -0.25 C9.43849854 -0.28641602 10.31449707 -0.32283203 11.21704102 -0.36035156 C17.00479384 -0.44139971 20.25579003 0.6596889 25 4 C28.4731269 7.91839958 29.61316378 10.93173938 29.3203125 16.046875 C28.58764841 20.51433894 26.77842435 23.27995748 23.5 26.3125 C20.16945525 28.5606177 17.69574168 29.12550171 13.76953125 29.09765625 C13.04612549 29.09515869 12.32271973 29.09266113 11.57739258 29.09008789 C10.66497803 29.08098389 9.75256348 29.07187988 8.8125 29.0625 C5.904375 29.041875 2.99625 29.02125 0 29 C0 19.43 0 9.86 0 0 Z " fill="#6B6A6A" transform="translate(739,708)"/>
<path d="M0 0 C1.12607666 0.00966797 1.12607666 0.00966797 2.27490234 0.01953125 C10.92731148 0.30315562 16.79003167 3.14653174 22.8125 9.375 C25.6772742 12.95766087 26.93441105 15.79751828 26.75 20.5 C25.6875 22.4375 25.6875 22.4375 23.75 23.5 C20.8125 23.9375 20.8125 23.9375 17.75 23.5 C15.6875 21.8125 15.6875 21.8125 13.75 19.5 C9.19624113 14.8378183 7.45703404 13.34646659 0.9375 13.25 C-0.10019531 13.22421875 -1.13789063 13.1984375 -2.20703125 13.171875 C-5.67317112 13.54563078 -7.47590445 14.42186175 -10.25 16.5 C-12.55128295 20.22966548 -13.25 22.06661697 -13.25 26.5 C-17.87921525 27.5161692 -21.59462607 27.33796731 -26.25 26.5 C-26.54162929 21.54230204 -26.37940055 18.47193147 -23.25 14.5 C-22.59 14.5 -21.93 14.5 -21.25 14.5 C-21.394375 13.79875 -21.53875 13.0975 -21.6875 12.375 C-21.09520226 8.48275771 -19.31942343 7.35708148 -16.3671875 4.9296875 C-10.96385332 1.28094154 -6.5041365 -0.05813753 0 0 Z " fill="#1E5086" transform="translate(466.25,630.5)"/>
<path d="M0 0 C0.1875 2.6875 0.1875 2.6875 -1 6 C-4.45002243 8.18584454 -8.18824443 9.5631854 -12 11 C-40.06615551 21.77703684 -86.7841139 45.56822781 -101 74 C-101.53625 73.731875 -102.0725 73.46375 -102.625 73.1875 C-105.57282601 72.95477689 -106.04811495 73.5799856 -108.25 75.4375 C-109.61125 76.7059375 -109.61125 76.7059375 -111 78 C-108.82997517 64.42970385 -84.37658588 46.80265354 -74 39 C-73.36932617 38.51998535 -72.73865234 38.0399707 -72.08886719 37.54541016 C-22.52846411 0 -22.52846411 0 0 0 Z " fill="#1A4476" transform="translate(425,315)"/>
<path d="M0 0 C3.63 0 7.26 0 11 0 C11 0.66 11 1.32 11 2 C11.99 1.67 12.98 1.34 14 1 C14 3.64 14 6.28 14 9 C26.54 9 39.08 9 52 9 C52 12.96 52 16.92 52 21 C34.84 21 17.68 21 0 21 C0 14.07 0 7.14 0 0 Z " fill="#585859" transform="translate(611,666)"/>
<path d="M0 0 C1.43739513 -0.02712066 2.87493863 -0.04645067 4.3125 -0.0625 C5.51326172 -0.07990234 5.51326172 -0.07990234 6.73828125 -0.09765625 C9 0 9 0 12 1 C13.39453125 2.92578125 13.39453125 2.92578125 14.8125 5.3125 C17.46952161 9.3723773 19.41042474 12.04518091 24 14 C30.13161169 14.90068872 35.30589756 14.90694335 40.625 11.5 C41.23601562 11.0359375 41.84703125 10.571875 42.4765625 10.09375 C44 9 44 9 46 9 C47.54296875 10.390625 47.54296875 10.390625 49.1875 12.25 C50.01314453 13.15492188 50.01314453 13.15492188 50.85546875 14.078125 C52 16 52 16 51.8984375 18.0703125 C50.17289578 21.77647602 46.53649686 23.24416033 43 25 C33.6803963 28.31714708 23.25308998 28.46882482 14.21484375 24.25 C6.92660417 20.13670782 2.781848 14.95708776 0 7 C-0.34815402 4.48704217 -0.27624132 2.54142015 0 0 Z " fill="#152A49" transform="translate(439,661)"/>
<path d="M0 0 C0.70036377 0.00612305 1.40072754 0.01224609 2.12231445 0.01855469 C10.11801714 0.25930543 16.37491493 2.85170307 22.125 8.4375 C25.45110043 12.57265188 26.63157287 15.11848483 26.125 20.4375 C17.6277032 21.36074754 17.6277032 21.36074754 14.0078125 19.13671875 C12.1875 17.5 12.1875 17.5 10.59765625 15.84765625 C7.60991913 12.98671964 4.10318138 13.2455818 0.1875 13.1875 C-0.85277344 13.16171875 -1.89304687 13.1359375 -2.96484375 13.109375 C-6.25002856 13.4797851 -7.38432017 14.36725544 -9.875 16.4375 C-12.19875692 16.83210023 -14.5343935 17.15980092 -16.875 17.4375 C-18.133125 17.80875 -19.39125 18.18 -20.6875 18.5625 C-23.875 19.4375 -23.875 19.4375 -25.875 18.4375 C-25.6066986 14.5918466 -25.16903715 12.78054334 -22.625 9.8125 C-21.26375 8.636875 -21.26375 8.636875 -19.875 7.4375 C-19.09125 6.73625 -18.3075 6.035 -17.5 5.3125 C-11.88330821 1.30057729 -6.86024406 -0.10247805 0 0 Z " fill="#828281" transform="translate(769.875,630.5625)"/>
<path d="M0 0 C1.051875 0.103125 2.10375 0.20625 3.1875 0.3125 C-0.91071325 6.15565938 -5.40076407 11.14710644 -10.625 16 C-11.36492188 16.68989014 -12.10484375 17.37978027 -12.8671875 18.09057617 C-28.06321179 32.04758452 -45.06266748 43.74036022 -63.1875 53.5625 C-63.90744141 53.95791992 -64.62738281 54.35333984 -65.36914062 54.76074219 C-67.14269567 55.69360824 -68.97475554 56.51348067 -70.8125 57.3125 C-71.8025 56.9825 -72.7925 56.6525 -73.8125 56.3125 C-70.84615976 49.57733133 -64.29479288 46.54942786 -58.13745117 43.03369141 C-43.07618919 34.42873054 -29.38307465 24.26204115 -16.8125 12.3125 C-14.72636238 10.47496945 -12.62363992 8.65933275 -10.51171875 6.8515625 C-8.58215224 5.16429606 -8.58215224 5.16429606 -6.25 2.375 C-3.8125 0.3125 -3.8125 0.3125 0 0 Z " fill="#868786" transform="translate(687.8125,716.6875)"/>
<path d="M0 0 C0.66 0.66 1.32 1.32 2 2 C1.03900391 3.52367187 1.03900391 3.52367187 0.05859375 5.078125 C-4.57097074 12.4394647 -9.11740727 19.82509981 -13.4609375 27.359375 C-15.55945152 30.95987114 -17.76713593 34.48154753 -20 38 C-18.35 38.33 -16.7 38.66 -15 39 C-15 37.68 -15 36.36 -15 35 C-12.525 34.505 -12.525 34.505 -10 34 C-10 38.97753476 -11.061199 39.57314174 -14.4375 43.0625 C-15.36825259 44.04333202 -16.29658712 45.02646355 -17.22265625 46.01171875 C-17.92672607 46.75881104 -17.92672607 46.75881104 -18.64501953 47.52099609 C-20.66131369 49.72184474 -22.51380308 52.04252753 -24.375 54.375 C-28.30491902 59.24893871 -32.46556878 63.85058958 -36.75146484 68.40966797 C-39.9695947 71.83995842 -43.0191117 75.36092287 -46 79 C-46.33 78.34 -46.66 77.68 -47 77 C-45.53077134 74.37937582 -44.01219634 71.88779995 -42.375 69.375 C-41.71564453 68.34439453 -41.71564453 68.34439453 -41.04296875 67.29296875 C-39.23885434 64.47304798 -37.42634954 61.65861849 -35.60717773 58.84838867 C-33.46141699 55.48856363 -31.55854264 52.3726535 -30.3125 48.5625 C-28.34537462 43.36308562 -25.66792667 38.66436121 -22.875 33.875 C-22.43067627 33.10357666 -21.98635254 32.33215332 -21.52856445 31.53735352 C-21.10406006 30.82119873 -20.67955566 30.10504395 -20.2421875 29.3671875 C-19.8591748 28.71862793 -19.47616211 28.07006836 -19.08154297 27.40185547 C-18.72463379 26.93924316 -18.36772461 26.47663086 -18 26 C-17.34 26 -16.68 26 -16 26 C-15.77054687 25.01515625 -15.54109375 24.0303125 -15.3046875 23.015625 C-13.99735904 18.45261214 -11.66776616 14.72353545 -9.125 10.75 C-8.69058594 10.04359375 -8.25617188 9.3371875 -7.80859375 8.609375 C-5.57312925 5.06485472 -3.66626093 2.21680893 0 0 Z " fill="#132848" transform="translate(488,513)"/>
<path d="M0 0 C5.28 0 10.56 0 16 0 C16 19.8 16 39.6 16 60 C28.21 60 40.42 60 53 60 C53 60.33 53 60.66 53 61 C40.46 61 27.92 61 15 61 C14.67 58.69 14.34 56.38 14 54 C13.34 54 12.68 54 12 54 C12 53.34 12 52.68 12 52 C8.37 52 4.74 52 1 52 C1 58.93 1 65.86 1 73 C0.67 73 0.34 73 0 73 C0 48.91 0 24.82 0 0 Z M1 1 C1 11.89 1 22.78 1 34 C4.9223894 34.98059735 7.98158793 35.21918611 12 35 C12.99 34.34 13.98 33.68 15 33 C15.26727014 30.51659097 15.34866334 28.28527932 15.29296875 25.8046875 C15.28872391 25.09724396 15.28447906 24.38980042 15.28010559 23.66091919 C15.26329547 21.39856095 15.22564128 19.13708952 15.1875 16.875 C15.17245607 15.34246077 15.15876716 13.8099076 15.14648438 12.27734375 C15.11593401 8.51761165 15.05722356 4.75979977 15 1 C10.38 1 5.76 1 1 1 Z " fill="#B2B3B4" transform="translate(610,614)"/>
<path d="M0 0 C0.99 0.495 0.99 0.495 2 1 C1.34 1.598125 0.68 2.19625 0 2.8125 C-2.3373846 4.87501834 -2.3373846 4.87501834 -2 8 C-5.22731685 9.40013647 -8.45720281 10.79425494 -11.6875 12.1875 C-12.58017578 12.57486328 -13.47285156 12.96222656 -14.39257812 13.36132812 C-26.14260681 18.42094902 -37.75293725 22.73947385 -50.1875 25.8125 C-51.38052734 26.12380859 -52.57355469 26.43511719 -53.80273438 26.75585938 C-60.66411107 28.47214656 -66.92530495 29.46582772 -74 29 C-74.33 27.35 -74.66 25.7 -75 24 C-74.36425049 23.90090332 -73.72850098 23.80180664 -73.07348633 23.69970703 C-49.55790192 19.90923524 -27.28021201 12.9723906 -5.81103516 2.60449219 C-3.89741311 1.68592053 -1.95148447 0.83512372 0 0 Z " fill="#636667" transform="translate(617,767)"/>
<path d="M0 0 C4.27382119 2.29346082 7.51739956 5.24230531 10.875 8.6875 C11.40673828 9.22785889 11.93847656 9.76821777 12.48632812 10.32495117 C20.97918113 19.0109414 28.5434392 28.42106312 36 38 C36.70640625 38.89847656 37.4128125 39.79695313 38.140625 40.72265625 C42.4522213 46.59569514 42.4522213 46.59569514 41.875 51.0625 C41.441875 52.5165625 41.441875 52.5165625 41 54 C37.68541 52.89513667 37.34592861 52.44730754 35.50390625 49.67578125 C35.03404297 48.98387695 34.56417969 48.29197266 34.08007812 47.57910156 C33.57927734 46.83112305 33.07847656 46.08314453 32.5625 45.3125 C22.25427004 30.3284368 9.92124282 16.78053963 -3 4 C-2.01 2.68 -1.02 1.36 0 0 Z " fill="#676A6C" transform="translate(670,365)"/>
<path d="M0 0 C0.9075 0.00257813 1.815 0.00515625 2.75 0.0078125 C4.11125 0.00394531 4.11125 0.00394531 5.5 0 C7.75 0.1328125 7.75 0.1328125 8.75 1.1328125 C8.83758003 3.13246232 8.85696576 5.1351736 8.84765625 7.13671875 C8.84443359 8.35166016 8.84121094 9.56660156 8.83789062 10.81835938 C8.82951172 12.09775391 8.82113281 13.37714844 8.8125 14.6953125 C8.80798828 15.97857422 8.80347656 17.26183594 8.79882812 18.58398438 C8.78699555 21.7669467 8.76905944 24.94988524 8.75 28.1328125 C4.13 28.1328125 -0.49 28.1328125 -5.25 28.1328125 C-5.30428494 24.94508033 -5.34381088 21.75828614 -5.375 18.5703125 C-5.39175781 17.67505859 -5.40851562 16.77980469 -5.42578125 15.85742188 C-5.46475029 10.53814818 -5.06745031 6.14762909 -3.25 1.1328125 C-2.25 0.1328125 -2.25 0.1328125 0 0 Z " fill="#666666" transform="translate(713.25,658.8671875)"/>
<path d="M0 0 C2 2 2 2 2.22705078 4.52197266 C2.21134033 6.07730713 2.21134033 6.07730713 2.1953125 7.6640625 C2.18564453 9.34628906 2.18564453 9.34628906 2.17578125 11.0625 C2.15902344 12.238125 2.14226563 13.41375 2.125 14.625 C2.11597656 15.80835938 2.10695313 16.99171875 2.09765625 18.2109375 C2.07402905 21.14071057 2.03815713 24.07038014 2 27 C-2.62 27 -7.24 27 -12 27 C-12 18.75 -12 10.5 -12 2 C-8.04008761 1.20801752 -4.95964864 1 -1 1 C-0.67 0.67 -0.34 0.34 0 0 Z " fill="#152E4F" transform="translate(561,660)"/>
<path d="M0 0 C0.33 0 0.66 0 1 0 C1 9.9 1 19.8 1 30 C-3.29 30 -7.58 30 -12 30 C-12 20.76 -12 11.52 -12 2 C-11.01 1.67 -10.02 1.34 -9 1 C-9 1.99 -9 2.98 -9 4 C-4.03088634 2.87302957 -4.03088634 2.87302957 0 0 Z " fill="#142E51" transform="translate(521,657)"/>
<path d="M0 0 C0 8.58 0 17.16 0 26 C-4.62 26 -9.24 26 -14 26 C-14.02682614 22.02078906 -14.04675393 18.04175659 -14.0625 14.0625 C-14.07087891 12.92619141 -14.07925781 11.78988281 -14.08789062 10.61914062 C-14.09111328 9.53955078 -14.09433594 8.45996094 -14.09765625 7.34765625 C-14.10289307 6.34742432 -14.10812988 5.34719238 -14.11352539 4.31665039 C-14 2 -14 2 -13 1 C-11.00500882 0.76512459 -9.00324911 0.58632629 -7 0.4375 C-5.906875 0.35371094 -4.81375 0.26992188 -3.6875 0.18359375 C-1 0 -1 0 0 0 Z " fill="#606060" transform="translate(688,661)"/>
<path d="M0 0 C0.33 0 0.66 0 1 0 C1 3.96 1 7.92 1 12 C-3.95 12 -8.9 12 -14 12 C-14 26.19 -14 40.38 -14 55 C-14.33 55 -14.66 55 -15 55 C-15.33 46.09 -15.66 37.18 -16 28 C-19.3 28 -22.6 28 -26 28 C-26.99 31.465 -26.99 31.465 -28 35 C-28.33 35 -28.66 35 -29 35 C-29 27.41 -29 19.82 -29 12 C-31.97 12 -34.94 12 -38 12 C-38 11.67 -38 11.34 -38 11 C-35.36 10.67 -32.72 10.34 -30 10 C-29.67 9.01 -29.34 8.02 -29 7 C-28.01 7.33 -27.02 7.66 -26 8 C-26 8.33 -26 8.66 -26 9 C-22.37 9 -18.74 9 -15 9 C-15 9.66 -15 10.32 -15 11 C-10.05 11 -5.1 11 0 11 C0 7.37 0 3.74 0 0 Z " fill="#BFBFBF" transform="translate(737,632)"/>
<path d="M0 0 C18.48 0.33 36.96 0.66 56 1 C56 2.65 56 4.3 56 6 C42.14 6 28.28 6 14 6 C14 6.99 14 7.98 14 9 C13.01 9 12.02 9 11 9 C11 9.66 11 10.32 11 11 C10.34 10.67 9.68 10.34 9 10 C5.68449426 8.85672216 3.38000925 9.15499769 0 10 C0 6.7 0 3.4 0 0 Z " fill="#969696" transform="translate(742,658)"/>
<path d="M0 0 C-0.165 0.763125 -0.33 1.52625 -0.5 2.3125 C-1.09145396 5.03596236 -1.09145396 5.03596236 -1 8 C-2.765625 9.65625 -2.765625 9.65625 -5.25 11.5 C-21.52329868 23.59116507 -21.52329868 23.59116507 -34 39 C-34.53625 38.731875 -35.0725 38.46375 -35.625 38.1875 C-38.57282601 37.95477689 -39.04811495 38.5799856 -41.25 40.4375 C-42.61125 41.7059375 -42.61125 41.7059375 -44 43 C-41.79534135 29.21312058 -17.58939173 12.15933031 -7 4 C-6.11699219 3.26265625 -5.23398437 2.5253125 -4.32421875 1.765625 C-2 0 -2 0 0 0 Z " fill="#545E68" transform="translate(358,350)"/>
<path d="M0 0 C2.35022952 1.24668363 4.46688018 2.64458679 6.6875 4.125 C6.6875 5.115 6.6875 6.105 6.6875 7.125 C6.0275 7.125 5.3675 7.125 4.6875 7.125 C4.6875 7.785 4.6875 8.445 4.6875 9.125 C2.95869018 9.17949838 1.22937288 9.21801688 -0.5 9.25 C-1.46292969 9.27320313 -2.42585937 9.29640625 -3.41796875 9.3203125 C-6.3125 9.125 -6.3125 9.125 -8.73046875 8.12890625 C-12.06984017 6.83054248 -14.86563016 6.89579027 -18.4375 6.9375 C-19.65695312 6.94394531 -20.87640625 6.95039062 -22.1328125 6.95703125 C-25.33535872 6.98498484 -25.33535872 6.98498484 -28.3125 8.125 C-30.31211564 8.16420815 -32.31299364 8.16943347 -34.3125 8.125 C-32.92052671 4.74243279 -31.5099504 3.28811318 -28.375 1.4375 C-27.68535156 1.02113281 -26.99570312 0.60476563 -26.28515625 0.17578125 C-19.10480065 -3.64900223 -7.39047329 -3.28601209 0 0 Z " fill="#666666" transform="translate(783.3125,632.875)"/>
<path d="M0 0 C0.474375 0.495 0.94875 0.99 1.4375 1.5 C4.79964781 3.7577688 4.79964781 3.7577688 13 3 C13 9.93 13 16.86 13 24 C8.38 24 3.76 24 -1 24 C-1.02682792 20.18745377 -1.04675477 16.37509388 -1.0625 12.5625 C-1.07087891 11.47388672 -1.07925781 10.38527344 -1.08789062 9.26367188 C-1.09111328 8.22919922 -1.09433594 7.19472656 -1.09765625 6.12890625 C-1.10289307 5.17056885 -1.10812988 4.21223145 -1.11352539 3.22485352 C-1 1 -1 1 0 0 Z " fill="#132B4A" transform="translate(356,663)"/>
<path d="M0 0 C10.98214286 -0.66964286 10.98214286 -0.66964286 14.6875 2 C17.27431796 5.35587195 17.78038063 6.94509111 17.46875 11.06640625 C16.73623313 14.08803835 15.19716904 15.86745358 13 18 C9.14854957 19.92572521 4.19956748 19.04883218 0 19 C0 12.73 0 6.46 0 0 Z " fill="#FBFAFA" transform="translate(780,713)"/>
<path d="M0 0 C1.25393555 0.02707031 1.25393555 0.02707031 2.53320312 0.0546875 C4.58513228 0.10158874 6.63646756 0.17332589 8.6875 0.25 C8.9609375 6.8359375 8.9609375 6.8359375 6.5 10.5625 C2.67213503 14.22023763 -0.12098496 15.31331429 -5.3125 15.625 C-8.3428296 15.52743257 -9.50487547 15.14980445 -12.3125 13.6875 C-14.3125 11.25 -14.3125 11.25 -14.9375 7.75 C-14.3125 4.25 -14.3125 4.25 -12.35546875 2.046875 C-8.15165013 -0.4354826 -4.77985429 -0.19617397 0 0 Z " fill="#EFF1F4" transform="translate(315.3125,662.75)"/>
<path d="M0 0 C4.02164828 2.04255881 6.50573709 4.21241558 9 8 C9 9.32 9 10.64 9 12 C-0.57 12 -10.14 12 -20 12 C-18.98227877 5.89367263 -18.76709062 4.65983236 -14.30078125 1.13671875 C-9.8016363 -1.08611857 -4.8585456 -0.85388608 0 0 Z " fill="#FCFCFB" transform="translate(776,643)"/>
<path d="M0 0 C3.96374449 1.94710256 6.81807962 4.12103044 9 8 C9 9.32 9 10.64 9 12 C-0.57 12 -10.14 12 -20 12 C-18.96418824 5.78512943 -18.49754628 4.83936878 -14 1 C-9.81857256 -1.09071372 -4.55341387 -0.43450877 0 0 Z " fill="#F5F9FA" transform="translate(473,643)"/>
<path d="M0 0 C10.92644979 -0.43705799 10.92644979 -0.43705799 15 3 C17.4915904 6.7373856 17.45793285 8.57331583 17 13 C14.86320715 16.38939556 13.8225233 17.72582557 10 19 C8.27204648 19.06802967 6.54164635 19.08495645 4.8125 19.0625 C3.224375 19.041875 1.63625 19.02125 0 19 C0 12.73 0 6.46 0 0 Z " fill="#FAFAF9" transform="translate(745,713)"/>
<path d="M0 0 C3.07148535 -0.43108566 5.03001791 -0.67571021 8 0 C10.0605878 1.74905185 11.57289084 3.65628731 13.23046875 5.7890625 C15.49155376 8.61417093 18.0708531 10.80962029 20.82421875 13.140625 C23.31194013 15.2665772 25.71387185 17.47519051 28.125 19.6875 C31.5956973 22.82612441 34.99996863 25.57892838 39 28 C38.38125 28.28875 37.7625 28.5775 37.125 28.875 C34.86674235 29.93720042 34.86674235 29.93720042 33 32 C7.30810056 10.57627095 7.30810056 10.57627095 0 2 C0 1.34 0 0.68 0 0 Z " fill="#446594" transform="translate(318,716)"/>
<path d="M0 0 C4.63235294 2.26470588 4.63235294 2.26470588 6 5 C6.69064748 12.13669065 6.69064748 12.13669065 4 15.5 C-0.14685318 17.57342659 -2.38117047 17.58651804 -7 17 C-10.34362477 14.42798094 -11.78979663 12.35130741 -12.4375 8.1875 C-12 5 -12 5 -9.375 2.125 C-5.6928291 -0.1934039 -4.23908767 -0.72154684 0 0 Z " fill="#5B5B5B" transform="translate(684,606)"/>
<path d="M0 0 C3.0625 1.5625 3.0625 1.5625 5 4 C5.79720496 8.38462729 5.51613309 10.24192952 3 13.9375 C-0.33588599 16.23092162 -2.09984094 16.75815509 -6.0625 16.48046875 C-9.5685303 15.61102978 -11.01216563 13.91963173 -13 11 C-13.6198676 7.07417186 -13.58925458 4.99917081 -11.5625 1.5625 C-7.74356129 -0.76612117 -4.35571214 -0.75178662 0 0 Z " fill="#1B416B" transform="translate(366,607)"/>
<path d="M0 0 C5.32601145 1.61498412 10.23854208 3.86281367 15.25 6.25 C16.08958252 6.64823975 16.92916504 7.04647949 17.79418945 7.45678711 C23.73994313 10.31196899 29.47798143 13.38016778 35 17 C34.67 17.66 34.34 18.32 34 19 C33.21625 18.67 32.4325 18.34 31.625 18 C29.15667503 16.88133489 29.15667503 16.88133489 27 17 C27 17.66 27 18.32 27 19 C22.07937368 17.51308177 17.67998551 15.45888782 13.125 13.125 C12.45597656 12.78597656 11.78695312 12.44695312 11.09765625 12.09765625 C9.75218842 11.41584885 8.40745351 10.7325931 7.06347656 10.04785156 C3.71726724 8.34861701 0.35821917 6.67535319 -3 5 C-2.01 3.35 -1.02 1.7 0 0 Z " fill="#234D79" transform="translate(599,320)"/>
<path d="M0 0 C2.248125 -0.04125 4.49625 -0.0825 6.8125 -0.125 C8.07707031 -0.14820313 9.34164062 -0.17140625 10.64453125 -0.1953125 C14 0 14 0 17 2 C14 3 14 3 4 3 C4.33 9.6 4.66 16.2 5 23 C6.711875 23.185625 8.42375 23.37125 10.1875 23.5625 C11.15042969 23.66691406 12.11335937 23.77132812 13.10546875 23.87890625 C15.94233377 23.99758751 18.25423671 23.67765639 21 23 C21 23.99 21 24.98 21 26 C16.56197365 27.11169496 12.22932573 27.114854 7.6875 27.0625 C5.150625 27.041875 2.61375 27.02125 0 27 C0 18.09 0 9.18 0 0 Z " fill="#5B5C5B" transform="translate(740,709)"/>
<path d="M0 0 C18.48 0 36.96 0 56 0 C56 0.99 56 1.98 56 3 C42.14 3 28.28 3 14 3 C14 3.99 14 4.98 14 6 C13.01 6 12.02 6 11 6 C11 6.66 11 7.32 11 8 C10.34 7.67 9.68 7.34 9 7 C5.68449426 5.85672216 3.38000925 6.15499769 0 7 C0 4.69 0 2.38 0 0 Z " fill="#888889" transform="translate(742,661)"/>
<path d="M0 0 C3.35301708 0.93917432 6.67635085 1.96184386 10 3 C10.70157227 3.21462891 11.40314453 3.42925781 12.12597656 3.65039062 C14.44602524 4.36927895 16.754233 5.11921504 19.0625 5.875 C19.8248999 6.10719238 20.5872998 6.33938477 21.37280273 6.57861328 C23.53515625 7.3046875 23.53515625 7.3046875 27 9 C27.99609375 11.6953125 27.99609375 11.6953125 28 14 C21.87544241 13.43304095 16.49068447 12.06741129 10.6875 10.0625 C9.89021484 9.79759766 9.09292969 9.53269531 8.27148438 9.25976562 C4.79766957 8.08234984 2.08225212 7.05483475 -1 5 C-0.67 3.35 -0.34 1.7 0 0 Z " fill="#215490" transform="translate(408,775)"/>
<path d="M0 0 C0.66 0.66 1.32 1.32 2 2 C1.03900391 3.52367187 1.03900391 3.52367187 0.05859375 5.078125 C-3.95319342 11.45807285 -7.94578102 17.83126316 -11.6875 24.375 C-18.42151286 35.99634607 -18.42151286 35.99634607 -22 40 C-22.99 40 -23.98 40 -25 40 C-23.23570801 35.02790438 -20.6060834 30.56561939 -18 26 C-17.34 26 -16.68 26 -16 26 C-15.77054687 25.01515625 -15.54109375 24.0303125 -15.3046875 23.015625 C-13.99735904 18.45261214 -11.66776616 14.72353545 -9.125 10.75 C-8.69058594 10.04359375 -8.25617188 9.3371875 -7.80859375 8.609375 C-5.57312925 5.06485472 -3.66626093 2.21680893 0 0 Z " fill="#525456" transform="translate(488,513)"/>
<path d="M0 0 C9.12307692 0 9.12307692 0 13.4375 0.875 C14.28183594 1.03742187 15.12617187 1.19984375 15.99609375 1.3671875 C16.65738281 1.57601562 17.31867187 1.78484375 18 2 C18.33 2.66 18.66 3.32 19 4 C14.38 4 9.76 4 5 4 C4.93941406 5.49273438 4.87882813 6.98546875 4.81640625 8.5234375 C4.73200827 10.47396862 4.6473599 12.42448892 4.5625 14.375 C4.50352539 15.85226562 4.50352539 15.85226562 4.44335938 17.359375 C4.40146484 18.30039062 4.35957031 19.24140625 4.31640625 20.2109375 C4.27974854 21.08024902 4.24309082 21.94956055 4.20532227 22.84521484 C4 25 4 25 3 27 C2.01 27 1.02 27 0 27 C0 18.09 0 9.18 0 0 Z " fill="#5C5B59" transform="translate(775,708)"/>
<path d="M0 0 C0.33 1.32 0.66 2.64 1 4 C-16.14893617 8.76595745 -16.14893617 8.76595745 -25 8 C-25.33 6.35 -25.66 4.7 -26 3 C-22.4192122 2.29876984 -18.8350783 1.6164242 -15.25 0.9375 C-13.72632813 0.63875977 -13.72632813 0.63875977 -12.171875 0.33398438 C-10.70234375 0.05844727 -10.70234375 0.05844727 -9.203125 -0.22265625 C-8.30239258 -0.39547119 -7.40166016 -0.56828613 -6.47363281 -0.74633789 C-3.9979814 -1.000207 -2.34682951 -0.7687064 0 0 Z " fill="#696C6E" transform="translate(568,788)"/>
<path d="M0 0 C4.62 0 9.24 0 14 0 C14 3.3 14 6.6 14 10 C7.565 10.495 7.565 10.495 1 11 C-0.28317892 7.15046324 -0.06643637 4.05261865 0 0 Z " fill="#6C6C6C" transform="translate(674,632)"/>
<path d="M0 0 C0.33 0.66 0.66 1.32 1 2 C1.886875 1.814375 2.77375 1.62875 3.6875 1.4375 C6.99689922 1.00040954 8.77895477 1.34855265 12 2 C14.6068127 2.21881019 17.20220189 2.41012853 19.8125 2.5625 C20.85180664 2.62727539 20.85180664 2.62727539 21.91210938 2.69335938 C23.60788686 2.79861453 25.30392052 2.89972863 27 3 C27 3.33 27 3.66 27 4 C26.25234375 4.03738281 25.5046875 4.07476563 24.734375 4.11328125 C23.74953125 4.17902344 22.7646875 4.24476563 21.75 4.3125 C20.77546875 4.37050781 19.8009375 4.42851563 18.796875 4.48828125 C15.70412698 5.05413319 14.40604135 6.05685455 12 8 C9.67624308 8.39460023 7.3406065 8.72230092 5 9 C3.741875 9.37125 2.48375 9.7425 1.1875 10.125 C-2 11 -2 11 -4 10 C-3.5205537 5.78087253 -2.83374881 3.20336822 0 0 Z " fill="#919291" transform="translate(748,639)"/>
<path d="M0 0 C-1.55636242 3.62590381 -3.7792923 6.16858915 -6.4375 9.0625 C-7.21996094 9.91972656 -8.00242187 10.77695312 -8.80859375 11.66015625 C-9.89333984 12.81837891 -9.89333984 12.81837891 -11 14 C-11.53367187 14.60328125 -12.06734375 15.2065625 -12.6171875 15.828125 C-13.07351563 16.21484375 -13.52984375 16.6015625 -14 17 C-16.6875 16.6875 -16.6875 16.6875 -19 16 C-18.44894091 12.0507432 -17.61064629 8.65079826 -16 5 C-9.375 4 -9.375 4 -6 4 C-6 2.68 -6 1.36 -6 0 C-2.25 -1.125 -2.25 -1.125 0 0 Z " fill="#152844" transform="translate(479,548)"/>
<path d="M0 0 C3.10465605 5.58838089 3.10585301 10.75467219 3 17 C2.67 17 2.34 17 2 17 C2 14.69 2 12.38 2 10 C1.43829102 10.00523682 0.87658203 10.01047363 0.29785156 10.01586914 C-13.17320276 10.12380152 -26.55340025 9.81671322 -40 9 C-40 8.67 -40 8.34 -40 8 C-30.43 8 -20.86 8 -11 8 C-11.33 6.35 -11.66 4.7 -12 3 C-8.04 3.33 -4.08 3.66 0 4 C0 2.68 0 1.36 0 0 Z " fill="#BCBDBB" transform="translate(796,647)"/>
<path d="M0 0 C1.93166016 0.01740234 1.93166016 0.01740234 3.90234375 0.03515625 C5.19269531 0.04417969 6.48304688 0.05320312 7.8125 0.0625 C8.81152344 0.07410156 9.81054688 0.08570313 10.83984375 0.09765625 C10.83984375 2.73765625 10.83984375 5.37765625 10.83984375 8.09765625 C9.84984375 8.42765625 8.85984375 8.75765625 7.83984375 9.09765625 C7.83984375 8.43765625 7.83984375 7.77765625 7.83984375 7.09765625 C4.20984375 7.09765625 0.57984375 7.09765625 -3.16015625 7.09765625 C-3.16015625 14.02765625 -3.16015625 20.95765625 -3.16015625 28.09765625 C-3.49015625 28.09765625 -3.82015625 28.09765625 -4.16015625 28.09765625 C-4.18901963 23.61850297 -4.20690812 19.13937334 -4.22265625 14.66015625 C-4.23103516 13.38076172 -4.23941406 12.10136719 -4.24804688 10.78320312 C-4.25126953 9.56826172 -4.25449219 8.35332031 -4.2578125 7.1015625 C-4.26304932 5.97564697 -4.26828613 4.84973145 -4.27368164 3.68969727 C-4.10676181 -0.12145946 -3.88868243 0.12016942 0 0 Z " fill="#8C8C8D" transform="translate(614.16015625,658.90234375)"/>
<path d="M0 0 C3.08051317 -0.43235273 5.02436749 -0.68788702 8 0 C10.77642526 2.33687096 12.8234801 5.11266727 15 8 C16.31635024 9.35010281 17.63973902 10.69414946 19 12 C18.01 13.485 18.01 13.485 17 15 C17.66 15.33 18.32 15.66 19 16 C18.01 16.66 17.02 17.32 16 18 C13.32529045 15.38308836 10.66165519 12.75518292 8 10.125 C7.236875 9.37863281 6.47375 8.63226562 5.6875 7.86328125 C4.965625 7.14785156 4.24375 6.43242188 3.5 5.6953125 C2.8296875 5.03547363 2.159375 4.37563477 1.46875 3.69580078 C0 2 0 2 0 0 Z " fill="#7F8895" transform="translate(318,716)"/>
<path d="M0 0 C0.99 0.33 1.98 0.66 3 1 C3 1.33 3 1.66 3 2 C6.63 2 10.26 2 14 2 C14.04241723 4.33294775 14.04092937 6.66702567 14 9 C12.18884044 10.81115956 9.38721773 10.38199448 6.9375 10.5625 C5.83277344 10.64628906 4.72804688 10.73007812 3.58984375 10.81640625 C2.73519531 10.87699219 1.88054688 10.93757812 1 11 C0.67 9.02 0.34 7.04 0 5 C-2.97 5 -5.94 5 -9 5 C-9 4.67 -9 4.34 -9 4 C-6.36 3.67 -3.72 3.34 -1 3 C-0.67 2.01 -0.34 1.02 0 0 Z " fill="#999999" transform="translate(708,639)"/>
<path d="M0 0 C15.84 0 31.68 0 48 0 C48 9 48 9 46 11.5625 C45.34 12.036875 44.68 12.51125 44 13 C44.875 9.125 44.875 9.125 46 8 C46.36760731 5.67182036 46.70241581 3.3381615 47 1 C45.73929687 1.0721875 44.47859375 1.144375 43.1796875 1.21875 C30.10863081 1.92566823 17.08854222 2.1231729 4 2 C3.34 4.31 2.68 6.62 2 9 C15.86 9.495 15.86 9.495 30 10 C29.67 10.66 29.34 11.32 29 12 C19.43 11.67 9.86 11.34 0 11 C0 7.37 0 3.74 0 0 Z " fill="#295884" transform="translate(382,632)"/>
<path d="M0 0 C0.66 0.66 1.32 1.32 2 2 C4.89883083 2.24339551 4.89883083 2.24339551 8.125 2.125 C9.76855469 2.09792969 9.76855469 2.09792969 11.4453125 2.0703125 C12.28835938 2.04710937 13.13140625 2.02390625 14 2 C14 5.3 14 8.6 14 12 C13.01 11.67 12.02 11.34 11 11 C9.10787263 10.77820215 7.21115528 10.59385985 5.3125 10.4375 C4.31863281 10.35371094 3.32476563 10.26992188 2.30078125 10.18359375 C1.54152344 10.12300781 0.78226563 10.06242188 0 10 C0 6.7 0 3.4 0 0 Z " fill="#979797" transform="translate(674,640)"/>
<path d="M0 0 C2.52775351 3.79163027 2.22443035 6.80874031 2.125 11.1875 C2.11597656 11.93708984 2.10695313 12.68667969 2.09765625 13.45898438 C2.07412578 15.30612654 2.03825561 17.15310412 2 19 C-1.3 18.67 -4.6 18.34 -8 18 C-8 17.34 -8 16.68 -8 16 C-10.97 16.66 -13.94 17.32 -17 18 C-17 16.35 -17 14.7 -17 13 C-22.94 13 -28.88 13 -35 13 C-35 12.67 -35 12.34 -35 12 C-11.00483611 11.58722095 -11.00483611 11.58722095 -2 14 C-2 14.99 -2 15.98 -2 17 C-1.01 17 -0.02 17 1 17 C0.83628906 16.47921875 0.67257812 15.9584375 0.50390625 15.421875 C-0.14058659 12.3243125 -0.09411589 9.41158906 -0.0625 6.25 C-0.05347656 5.07953125 -0.04445313 3.9090625 -0.03515625 2.703125 C-0.02355469 1.81109375 -0.01195312 0.9190625 0 0 Z " fill="#2E5E8D" transform="translate(336,643)"/>
<path d="M0 0 C4.06498881 1.37184347 6.67396561 3.22068459 9.8125 6.125 C10.99779297 7.21167969 10.99779297 7.21167969 12.20703125 8.3203125 C12.79871094 8.87460937 13.39039063 9.42890625 14 10 C13.34 11.65 12.68 13.3 12 15 C8.47761953 13.43632643 5.72876006 11.30504111 2.75 8.875 C1.85796875 8.15054687 0.9659375 7.42609375 0.046875 6.6796875 C-0.96632813 5.84824219 -0.96632813 5.84824219 -2 5 C-1.34 3.35 -0.68 1.7 0 0 Z " fill="#384655" transform="translate(656,354)"/>
<path d="M0 0 C1.4540625 0.0309375 1.4540625 0.0309375 2.9375 0.0625 C2.9375 0.7225 2.9375 1.3825 2.9375 2.0625 C5.9075 2.0625 8.8775 2.0625 11.9375 2.0625 C12.4325 4.5375 12.4325 4.5375 12.9375 7.0625 C11.9475 7.0625 10.9575 7.0625 9.9375 7.0625 C9.9375 5.7425 9.9375 4.4225 9.9375 3.0625 C8.7928125 3.3409375 8.7928125 3.3409375 7.625 3.625 C4.9375 4.0625 4.9375 4.0625 1.9375 3.0625 C1.9375 4.3825 1.9375 5.7025 1.9375 7.0625 C0.9475 7.0625 -0.0425 7.0625 -1.0625 7.0625 C-1.0625 6.0725 -1.0625 5.0825 -1.0625 4.0625 C-3.97997073 4.1765575 -6.89594495 4.30330268 -9.8125 4.4375 C-11.05 4.48390625 -11.05 4.48390625 -12.3125 4.53125 C-13.11171875 4.56992187 -13.9109375 4.60859375 -14.734375 4.6484375 C-15.83410645 4.69556885 -15.83410645 4.69556885 -16.95605469 4.74365234 C-19.31172918 5.10022523 -20.99700591 5.89912883 -23.0625 7.0625 C-22.1875 3.1875 -22.1875 3.1875 -21.0625 2.0625 C-17.42296804 1.79179101 -13.79006476 1.61604483 -10.14453125 1.45703125 C-6.39859216 1.27259622 -3.48780106 0.07117961 0 0 Z " fill="#18406D" transform="translate(325.0625,658.9375)"/>
<path d="M0 0 C1.155 0.144375 2.31 0.28875 3.5 0.4375 C4.22574219 0.52644531 4.95148437 0.61539063 5.69921875 0.70703125 C7.20369346 0.89860273 8.70651322 1.10378867 10.20703125 1.32421875 C13.55943742 1.80313392 15.7410978 2.08630073 19 1 C20 2 20 2 20.0625 5.0625 C20.041875 6.031875 20.02125 7.00125 20 8 C11.53802497 8.91940976 11.53802497 8.91940976 7.8828125 6.734375 C6.17178995 5.22162545 4.59486226 3.6329359 3 2 C2.01 1.34 1.02 0.68 0 0 Z " fill="#929191" transform="translate(776,643)"/>
<path d="M0 0 C-0.165 0.763125 -0.33 1.52625 -0.5 2.3125 C-1.09145396 5.03596236 -1.09145396 5.03596236 -1 8 C-3.08203125 10.078125 -3.08203125 10.078125 -5.8125 12.25 C-7.15248047 13.34054687 -7.15248047 13.34054687 -8.51953125 14.453125 C-9.33808594 14.96359375 -10.15664063 15.4740625 -11 16 C-11.99 15.67 -12.98 15.34 -14 15 C-12.33892804 8.68792656 -7.5992503 0 0 0 Z " fill="#344B65" transform="translate(358,350)"/>
<path d="M0 0 C1.64573233 -0.02768522 3.29161069 -0.04669585 4.9375 -0.0625 C5.85402344 -0.07410156 6.77054688 -0.08570313 7.71484375 -0.09765625 C10.29880441 -0.0208441 12.72804953 0.18671537 15.28515625 0.50390625 C20.04328517 1.06670641 24.71502725 1.07805828 29.5 1 C35.77012233 0.89771415 41.77436779 1.20311908 48 2 C48 2.33 48 2.66 48 3 C32.49 3 16.98 3 1 3 C0.67 2.01 0.34 1.02 0 0 Z " fill="#8D8C8C" transform="translate(742,659)"/>
<path d="M0 0 C0.1875 2.6875 0.1875 2.6875 -1 6 C-4.46443806 8.19156146 -8.08050561 9.80088528 -12 11 C-12.66 10.67 -13.32 10.34 -14 10 C-11.92127303 3.51926298 -11.92127303 3.51926298 -7.5625 1.0625 C-4 0 -4 0 0 0 Z " fill="#225082" transform="translate(425,315)"/>
<path d="M0 0 C0.99 0.495 0.99 0.495 2 1 C14.49546068 2.83025735 27.41439819 2.09562409 40 2 C40 2.33 40 2.66 40 3 C34.68792752 3.74668723 29.5957861 4.11933785 24.21875 4.09765625 C23.51979614 4.0962413 22.82084229 4.09482635 22.10070801 4.09336853 C19.90042571 4.0878367 17.70025077 4.07529777 15.5 4.0625 C13.99479315 4.05747616 12.48958468 4.05291482 10.984375 4.04882812 C7.32288265 4.03788977 3.66145183 4.02067359 0 4 C0 2.68 0 1.36 0 0 Z " fill="#12283E" transform="translate(382,683)"/>
<path d="M0 0 C1 1 1 1 1 6 C-2.63 6 -6.26 6 -10 6 C-10.99 9.465 -10.99 9.465 -12 13 C-12.33 13 -12.66 13 -13 13 C-13 9.04 -13 5.08 -13 1 C-8.62344926 0.29975188 -4.43577642 -0.21122745 0 0 Z " fill="#A8A8A8" transform="translate(721,654)"/>
<path d="M0 0 C0.33 0 0.66 0 1 0 C1.65117313 5.0178635 -0.58813214 8.22799277 -3.25 12.25 C-3.64574219 12.88679687 -4.04148437 13.52359375 -4.44921875 14.1796875 C-7.46664455 18.82949118 -7.46664455 18.82949118 -10.14746094 19.68652344 C-10.75879883 19.7899707 -11.37013672 19.89341797 -12 20 C-10.23570801 15.02790438 -7.6060834 10.56561939 -5 6 C-4.34 6 -3.68 6 -3 6 C-2.690625 5.195625 -2.38125 4.39125 -2.0625 3.5625 C-1 1 -1 1 0 0 Z " fill="#44484D" transform="translate(475,533)"/>
<path d="M0 0 C1.34173403 0.92543709 2.67320159 1.86577405 4 2.8125 C5.11375 3.59560547 5.11375 3.59560547 6.25 4.39453125 C6.8275 4.92433594 7.405 5.45414063 8 6 C8 9 8 9 7 11 C7.66 11.33 8.32 11.66 9 12 C8.01 12.66 7.02 13.32 6 14 C0.21564482 9.17970402 0.21564482 9.17970402 -0.3984375 5.8203125 C-0.375 3.625 -0.375 3.625 0 0 Z " fill="#657791" transform="translate(328,720)"/>
<path d="M0 0 C4.43458973 1.3937282 6.87378374 3.60582235 10 7 C9.34 8.32 8.68 9.64 8 11 C3.2962963 9.51461988 3.2962963 9.51461988 1.8125 6.9375 C1.544375 6.298125 1.27625 5.65875 1 5 C0.34 4.67 -0.32 4.34 -1 4 C-0.67 2.68 -0.34 1.36 0 0 Z " fill="#243F5C" transform="translate(647,347)"/>
<path d="M0 0 C0.66 0.66 1.32 1.32 2 2 C4.89883083 2.24339551 4.89883083 2.24339551 8.125 2.125 C9.76855469 2.09792969 9.76855469 2.09792969 11.4453125 2.0703125 C12.28835938 2.04710937 13.13140625 2.02390625 14 2 C14 3.32 14 4.64 14 6 C11.85423363 6.02685938 9.70837355 6.04633088 7.5625 6.0625 C6.36753906 6.07410156 5.17257812 6.08570313 3.94140625 6.09765625 C1 6 1 6 0 5 C-0.04063832 3.33382885 -0.042721 1.66611905 0 0 Z " fill="#868787" transform="translate(674,640)"/>
<path d="M0 0 C4.455 0.99 4.455 0.99 9 2 C9.33 3.65 9.66 5.3 10 7 C1.42857143 6.14285714 1.42857143 6.14285714 -2 4 C-1.34 2.68 -0.68 1.36 0 0 Z " fill="#315987" transform="translate(426,782)"/>
<path d="M0 0 C1.23234375 -0.01417969 2.4646875 -0.02835938 3.734375 -0.04296875 C7.05999008 0.17504379 9.27475759 0.75098029 12.25 2.1875 C12.25 2.5175 12.25 2.8475 12.25 3.1875 C9.47890693 3.24142397 6.70886182 3.28113455 3.9375 3.3125 C3.15181641 3.32925781 2.36613281 3.34601562 1.55664062 3.36328125 C0.79931641 3.36972656 0.04199219 3.37617187 -0.73828125 3.3828125 C-1.78302612 3.39852295 -1.78302612 3.39852295 -2.84887695 3.41455078 C-4.75 3.1875 -4.75 3.1875 -7.75 1.1875 C-5.83958442 -0.72291558 -2.53859404 0.01316698 0 0 Z " fill="#757676" transform="translate(764.75,638.8125)"/>
<path d="M0 0 C0.66 0.66 1.32 1.32 2 2 C-1.96 5.96 -5.92 9.92 -10 14 C-10.99 13.67 -11.98 13.34 -13 13 C-8.71 8.71 -4.42 4.42 0 0 Z " fill="#5D666D" transform="translate(330,373)"/>
<path d="M0 0 C6.93 0.495 6.93 0.495 14 1 C13.67 1.99 13.34 2.98 13 4 C6.565 4.495 6.565 4.495 0 5 C0 3.35 0 1.7 0 0 Z " fill="#909190" transform="translate(674,658)"/>
<path d="M0 0 C0 1.32 0 2.64 0 4 C-1.77074917 4.02705729 -3.54161711 4.04642195 -5.3125 4.0625 C-6.29863281 4.07410156 -7.28476562 4.08570313 -8.30078125 4.09765625 C-11 4 -11 4 -14 3 C-14 2.34 -14 1.68 -14 1 C-9.27616037 0.34843591 -4.78025483 -0.11950637 0 0 Z " fill="#A3A3A3" transform="translate(688,655)"/>
<path d="M0 0 C3.96 0.33 7.92 0.66 12 1 C12.33 1.99 12.66 2.98 13 4 C12.01 4 11.02 4 10 4 C10 4.66 10 5.32 10 6 C9.34 5.67 8.68 5.34 8 5 C4.9501128 3.98337093 3.05947137 4.01659849 0 5 C0 3.35 0 1.7 0 0 Z " fill="#70706F" transform="translate(743,663)"/>
<path d="M0 0 C1 2 1 2 0.44140625 4.1640625 C0.15136719 4.97617187 -0.13867188 5.78828125 -0.4375 6.625 C-0.72496094 7.44226563 -1.01242187 8.25953125 -1.30859375 9.1015625 C-1.65083984 10.04128906 -1.65083984 10.04128906 -2 11 C-0.35 11 1.3 11 3 11 C2.67 11.66 2.34 12.32 2 13 C1.236875 12.896875 0.47375 12.79375 -0.3125 12.6875 C-1.199375 12.790625 -2.08625 12.89375 -3 13 C-4.71711243 15.44496043 -4.71711243 15.44496043 -6 18 C-6.66 18 -7.32 18 -8 18 C-6.10463724 11.48180123 -3.4821006 5.82185199 0 0 Z " fill="#3B4550" transform="translate(462,553)"/>
<path d="M0 0 C1.32 0.33 2.64 0.66 4 1 C4 1.66 4 2.32 4 3 C5.65 3.33 7.3 3.66 9 4 C8.67 5.32 8.34 6.64 8 8 C6.35 8 4.7 8 3 8 C3 7.01 3 6.02 3 5 C2.01 5.33 1.02 5.66 0 6 C0 4.02 0 2.04 0 0 Z " fill="#1F5183" transform="translate(509,653)"/>
<path d="M0 0 C0 0.99 0 1.98 0 3 C-1.010625 3.12375 -2.02125 3.2475 -3.0625 3.375 C-6.87937612 3.98085335 -10.31500112 4.87193912 -14 6 C-14.66 5.34 -15.32 4.68 -16 4 C-14.274773 3.32320342 -12.54461061 2.65898 -10.8125 2 C-9.84957031 1.62875 -8.88664063 1.2575 -7.89453125 0.875 C-5.07817642 0.02363228 -2.91835561 -0.17072647 0 0 Z " fill="#9C9B9B" transform="translate(760,644)"/>
<path d="M0 0 C7.92 0 15.84 0 24 0 C24 0.33 24 0.66 24 1 C13.605 1.495 13.605 1.495 3 2 C2.34 4.31 1.68 6.62 1 9 C1.99 9.33 2.98 9.66 4 10 C2.68 10 1.36 10 0 10 C0 6.7 0 3.4 0 0 Z " fill="#184775" transform="translate(383,632)"/>
<path d="M0 0 C0.99 0.99 1.98 1.98 3 3 C-0.27530896 7.63720719 -3.30435607 11.68542782 -8 15 C-6.62712658 11.30123909 -4.93644547 8.0485524 -2.875 4.6875 C-2.33617187 3.80449219 -1.79734375 2.92148437 -1.2421875 2.01171875 C-0.83226562 1.34785156 -0.42234375 0.68398438 0 0 Z " fill="#253C56" transform="translate(449,577)"/>
<path d="M0 0 C1.74965358 -0.05429959 3.49979787 -0.09292823 5.25 -0.125 C6.22453125 -0.14820313 7.1990625 -0.17140625 8.203125 -0.1953125 C11.0196498 0.00137219 12.60949036 0.55431084 15 2 C11.84493858 2.93619813 9.03413498 3.1057123 5.75 3.0625 C4.85796875 3.05347656 3.9659375 3.04445313 3.046875 3.03515625 C2.37140625 3.02355469 1.6959375 3.01195312 1 3 C0.67 2.01 0.34 1.02 0 0 Z " fill="#565554" transform="translate(779,709)"/>
<path d="M0 0 C2.27057377 -0.05398987 4.54151288 -0.09278742 6.8125 -0.125 C8.07707031 -0.14820313 9.34164062 -0.17140625 10.64453125 -0.1953125 C14 0 14 0 17 2 C12.00347926 3.66550691 6.94227317 3.63421165 1.9375 2 C1.298125 1.67 0.65875 1.34 0 1 C0 0.67 0 0.34 0 0 Z " fill="#555554" transform="translate(740,709)"/>
<path d="M0 0 C0.33 0 0.66 0 1 0 C1 1.98 1 3.96 1 6 C-8.17286652 6.63019694 -8.17286652 6.63019694 -11.625 4 C-12.07875 3.34 -12.5325 2.68 -13 2 C-8.65535464 2.60825035 -4.32448133 3.26167392 0 4 C0 2.68 0 1.36 0 0 Z " fill="#A3A3A2" transform="translate(795,645)"/>
<path d="M0 0 C0.99 0.33 1.98 0.66 3 1 C2.55269531 1.50789062 2.10539062 2.01578125 1.64453125 2.5390625 C-1.96286942 6.64642275 -5.52114925 10.78321121 -9 15 C-9.75 13.25 -9.75 13.25 -10 11 C-8.1875 8.75 -8.1875 8.75 -6 7 C-5.34 7 -4.68 7 -4 7 C-4 6.34 -4 5.68 -4 5 C-3.34 5 -2.68 5 -2 5 C-2 4.34 -2 3.68 -2 3 C-1.34 3 -0.68 3 0 3 C0 2.01 0 1.02 0 0 Z " fill="#264F7C" transform="translate(265,626)"/>
<path d="M0 0 C3.43752007 1.5277867 6.18953688 3.50181056 9 6 C9 6.66 9 7.32 9 8 C9.61875 8.0825 10.2375 8.165 10.875 8.25 C13 9 13 9 14.25 11.0625 C14.4975 11.701875 14.745 12.34125 15 13 C11 13 11 13 8.7109375 10.91796875 C7.94007813 10.01691406 7.16921875 9.11585938 6.375 8.1875 C5.59898437 7.29417969 4.82296875 6.40085937 4.0234375 5.48046875 C2 3 2 3 0 0 Z " fill="#565A5D" transform="translate(671,372)"/>
<path d="M0 0 C0.99 0.33 1.98 0.66 3 1 C1.93235269 4.02500071 0.74105624 6.38449224 -1.0625 9.0625 C-2.70988017 11.5601409 -3.55455115 13.10458245 -4 16 C-4.33 16 -4.66 16 -5 16 C-4.49228528 10.03435204 -2.61407872 5.36190101 0 0 Z " fill="#919497" transform="translate(445,578)"/>
<path d="M0 0 C0.33 0.99 0.66 1.98 1 3 C1.66 3 2.32 3 3 3 C3.38909985 4.45463481 3.76088029 5.91391207 4.125 7.375 C4.33382813 8.18710937 4.54265625 8.99921875 4.7578125 9.8359375 C4.83773438 10.55007813 4.91765625 11.26421875 5 12 C4.34 12.66 3.68 13.32 3 14 C0.56574762 9.03006806 -0.34615998 5.65394631 0 0 Z " fill="#1C3A5F" transform="translate(439,661)"/>
<path d="M0 0 C2.97 0.495 2.97 0.495 6 1 C5.67 2.65 5.34 4.3 5 6 C2.5625 5.625 2.5625 5.625 0 5 C-0.33 4.34 -0.66 3.68 -1 3 C-0.67 2.01 -0.34 1.02 0 0 Z " fill="#1E518B" transform="translate(420,780)"/>
<path d="M0 0 C3.93673644 1.31224548 6.22719294 2.91910327 9 6 C8.38125 6.12375 7.7625 6.2475 7.125 6.375 C4.80879168 6.87197356 4.80879168 6.87197356 3 9 C2.71125 8.236875 2.4225 7.47375 2.125 6.6875 C1.03730987 3.84970692 1.03730987 3.84970692 -1 1 C-0.67 0.67 -0.34 0.34 0 0 Z " fill="#2E5995" transform="translate(348,739)"/>
<path d="M0 0 C0.66 0.66 1.32 1.32 2 2 C0.02 2.99 0.02 2.99 -2 4 C-2 3.01 -2 2.02 -2 1 C-1.34 0.67 -0.68 0.34 0 0 Z M-6 4 C-4.68 4 -3.36 4 -2 4 C-2.33 5.32 -2.66 6.64 -3 8 C-4.65 8.33 -6.3 8.66 -8 9 C-8 6 -8 6 -6 4 Z " fill="#10345C" transform="translate(397,663)"/>
<path d="M0 0 C0.66 0.33 1.32 0.66 2 1 C1.34 2.32 0.68 3.64 0 5 C-0.66 5 -1.32 5 -2 5 C-2.66 6.32 -3.32 7.64 -4 9 C-5.32 8.67 -6.64 8.34 -8 8 C-5.36 5.36 -2.72 2.72 0 0 Z " fill="#1A4774" transform="translate(246,632)"/>
<path d="M0 0 C2.66666667 5.33333333 2.66666667 5.33333333 3 8 C2.0625 10.25 2.0625 10.25 1 12 C3.64 12 6.28 12 9 12 C9 12.33 9 12.66 9 13 C5.7 13 2.4 13 -1 13 C-0.67 8.71 -0.34 4.42 0 0 Z " fill="#0A1D36" transform="translate(550,673)"/>
<path d="M0 0 C4.29 0 8.58 0 13 0 C13.33 1.32 13.66 2.64 14 4 C13.01 3.67 12.02 3.34 11 3 C9.10787263 2.77820215 7.21115528 2.59385985 5.3125 2.4375 C4.31863281 2.35371094 3.32476563 2.26992188 2.30078125 2.18359375 C1.16189453 2.09271484 1.16189453 2.09271484 0 2 C0 1.34 0 0.68 0 0 Z " fill="#A4A4A4" transform="translate(674,648)"/>
<path d="M0 0 C0.99 0.33 1.98 0.66 3 1 C3.36923077 5.55384615 3.36923077 5.55384615 1.5 7.8125 C1.005 8.204375 0.51 8.59625 0 9 C-0.99 8.67 -1.98 8.34 -3 8 C-2.01 5.36 -1.02 2.72 0 0 Z " fill="#435164" transform="translate(347,357)"/>
<path d="M0 0 C2.96404505 2.80804268 5.44499019 5.18315774 7 9 C3.85972637 8.66354211 2.94901705 7.94763914 0.6875 5.625 C0.130625 4.75875 -0.42625 3.8925 -1 3 C-0.67 2.01 -0.34 1.02 0 0 Z " fill="#122641" transform="translate(257,674)"/>
<path d="M0 0 C0.99 0.33 1.98 0.66 3 1 C1.44499019 4.81684226 -1.03595495 7.19195732 -4 10 C-3.5205537 5.78087253 -2.83374881 3.20336822 0 0 Z " fill="#214975" transform="translate(409,660)"/>
<path d="M0 0 C0.33 0.99 0.66 1.98 1 3 C-2.17320782 6.53586014 -4.16743695 8.58578031 -9 9 C-8.67 7.68 -8.34 6.36 -8 5 C-8 5.99 -8 6.98 -8 8 C-7.34 8 -6.68 8 -6 8 C-5.7525 7.4225 -5.505 6.845 -5.25 6.25 C-3.83316683 3.6997003 -2.12372463 1.98214299 0 0 Z " fill="#2A5885" transform="translate(237,641)"/>
<path d="M0 0 C4.29 0 8.58 0 13 0 C13 0.66 13 1.32 13 2 C11.01432292 1.93489583 9.02864583 1.86979167 7.04296875 1.8046875 C4.68640281 1.86745538 4.68640281 1.86745538 2 4 C1.34 4.99 0.68 5.98 0 7 C0 4.69 0 2.38 0 0 Z " fill="#17406D" transform="translate(355,632)"/>
<path d="M0 0 C1.98 0 3.96 0 6 0 C4.70700306 2.88437779 3.34058637 4.87219421 1 7 C0.01 6.67 -0.98 6.34 -2 6 C-1.34 5.01 -0.68 4.02 0 3 C0 2.01 0 1.02 0 0 Z " fill="#1D3552" transform="translate(626,368)"/>
<path d="M0 0 C4.29 0.33 8.58 0.66 13 1 C13 1.66 13 2.32 13 3 C9.70303895 4.09898702 8.59505097 3.87124444 5.3125 3.0625 C4.10013672 2.77052734 4.10013672 2.77052734 2.86328125 2.47265625 C1.94095703 2.23869141 1.94095703 2.23869141 1 2 C1 3.65 1 5.3 1 7 C0.67 7 0.34 7 0 7 C0 4.69 0 2.38 0 0 Z " fill="#7E7E7D" transform="translate(742,661)"/>
<path d="M0 0 C0.66 0 1.32 0 2 0 C0.43006215 5.02380113 -2.60115742 9.0469983 -6 13 C-6.99 13.495 -6.99 13.495 -8 14 C-6.46226926 10.83582328 -4.77588602 7.7867651 -3 4.75 C-2.484375 3.85796875 -1.96875 2.9659375 -1.4375 2.046875 C-0.963125 1.37140625 -0.48875 0.6959375 0 0 Z " fill="#325D82" transform="translate(525,458)"/>
<path d="M0 0 C0 0.66 0 1.32 0 2 C-0.66 2 -1.32 2 -2 2 C-2.66 3.32 -3.32 4.64 -4 6 C-4.99 6 -5.98 6 -7 6 C-7 6.66 -7 7.32 -7 8 C-7.66 8 -8.32 8 -9 8 C-7.47364599 4.11473526 -4.49771687 0 0 0 Z " fill="#244B6F" transform="translate(297,657)"/>
<path d="M0 0 C1.79244141 0.01740234 1.79244141 0.01740234 3.62109375 0.03515625 C5.41740234 0.04869141 5.41740234 0.04869141 7.25 0.0625 C8.17683594 0.07410156 9.10367188 0.08570313 10.05859375 0.09765625 C9.72859375 0.75765625 9.39859375 1.41765625 9.05859375 2.09765625 C5.75859375 2.09765625 2.45859375 2.09765625 -0.94140625 2.09765625 C-1.60140625 4.40765625 -2.26140625 6.71765625 -2.94140625 9.09765625 C-3.27140625 9.09765625 -3.60140625 9.09765625 -3.94140625 9.09765625 C-4.0390625 2.9453125 -4.0390625 2.9453125 -3.94140625 1.09765625 C-2.94140625 0.09765625 -2.94140625 0.09765625 0 0 Z " fill="#959696" transform="translate(711.94140625,657.90234375)"/>
<path d="M0 0 C0.66 0.99 1.32 1.98 2 3 C1.01 3.33 0.02 3.66 -1 4 C-1.33 4.99 -1.66 5.98 -2 7 C-5 3.25 -5 3.25 -5 1 C-3 0 -3 0 0 0 Z " fill="#A1A2A1" transform="translate(726,438)"/>
<path d="M0 0 C-0.165 0.763125 -0.33 1.52625 -0.5 2.3125 C-1.09145396 5.03596236 -1.09145396 5.03596236 -1 8 C-1.99 7.67 -2.98 7.34 -4 7 C-4 6.34 -4 5.68 -4 5 C-4.99 4.67 -5.98 4.34 -7 4 C-2.25 0 -2.25 0 0 0 Z " fill="#355171" transform="translate(358,350)"/>
<path d="M0 0 C0.99 0 1.98 0 3 0 C2 2 1 4 0 6 C-2.31 5.67 -4.62 5.34 -7 5 C-7 4.67 -7 4.34 -7 4 C-5.02 4 -3.04 4 -1 4 C-0.67 2.68 -0.34 1.36 0 0 Z " fill="#173252" transform="translate(496,524)"/>
<path d="M0 0 C0.99 0.33 1.98 0.66 3 1 C2.67 2.65 2.34 4.3 2 6 C0.68 6.33 -0.64 6.66 -2 7 C-2.125 4.625 -2.125 4.625 -2 2 C-1.34 1.34 -0.68 0.68 0 0 Z " fill="#082142" transform="translate(384,675)"/>
<path d="M0 0 C6.93 0.495 6.93 0.495 14 1 C14 1.33 14 1.66 14 2 C10.04 2 6.08 2 2 2 C1.67 2.66 1.34 3.32 1 4 C0.67 2.68 0.34 1.36 0 0 Z " fill="#A1A1A2" transform="translate(611,657)"/>
<path d="M0 0 C0.66 0.33 1.32 0.66 2 1 C0.71034824 2.37562854 -0.62689293 3.70766393 -2 5 C-2.66 5 -3.32 5 -4 5 C-4 5.66 -4 6.32 -4 7 C-4.66 7 -5.32 7 -6 7 C-5.8125 5.1875 -5.8125 5.1875 -5 3 C-2.5625 1.1875 -2.5625 1.1875 0 0 Z " fill="#11477E" transform="translate(451,636)"/>
<path d="M0 0 C0.33 0 0.66 0 1 0 C1.3648363 4.25642352 0.47460354 6.53555505 -2 10 C-2.33 10 -2.66 10 -3 10 C-3.23226952 6.59338044 -3.35720302 4.59016151 -1.5625 1.625 C-0.7890625 0.820625 -0.7890625 0.820625 0 0 Z " fill="#333A43" transform="translate(475,533)"/>
<path d="M0 0 C0.33 1.32 0.66 2.64 1 4 C-0.98 5.32 -2.96 6.64 -5 8 C-5.66 7.67 -6.32 7.34 -7 7 C-4.69 4.69 -2.38 2.38 0 0 Z " fill="#1E4469" transform="translate(260,617)"/>
<path d="M0 0 C0.33 1.32 0.66 2.64 1 4 C2.98 4 4.96 4 7 4 C7 4.66 7 5.32 7 6 C4.36 6 1.72 6 -1 6 C-0.67 4.02 -0.34 2.04 0 0 Z " fill="#858888" transform="translate(759,571)"/>
<path d="M0 0 C0.598125 0.20625 1.19625 0.4125 1.8125 0.625 C1.4825 1.945 1.1525 3.265 0.8125 4.625 C-2.1575 4.13 -2.1575 4.13 -5.1875 3.625 C-5.1875 2.965 -5.1875 2.305 -5.1875 1.625 C-2.1875 -0.375 -2.1875 -0.375 0 0 Z " fill="#12254D" transform="translate(465.1875,560.375)"/>
<path d="M0 0 C1.32 0.33 2.64 0.66 4 1 C3.01 2.98 2.02 4.96 1 7 C0.01 6.34 -0.98 5.68 -2 5 C-1.34 3.35 -0.68 1.7 0 0 Z " fill="#474C51" transform="translate(476,529)"/>
<path d="M0 0 C1.5 1.125 1.5 1.125 3 3 C3.1875 6.1875 3.1875 6.1875 3 9 C1.68 8.01 0.36 7.02 -1 6 C-0.67 4.02 -0.34 2.04 0 0 Z " fill="#7D7E80" transform="translate(712,414)"/>
<path d="M0 0 C0.99 0.33 1.98 0.66 3 1 C3 2.32 3 3.64 3 5 C1.35 5 -0.3 5 -2 5 C-1.34 3.35 -0.68 1.7 0 0 Z " fill="#3F5C7F" transform="translate(433,784)"/>
<path d="M0 0 C0.6875 1.8125 0.6875 1.8125 1 4 C-0.4375 5.75 -0.4375 5.75 -2 7 C-2.99 6.67 -3.98 6.34 -5 6 C-3.35 4.02 -1.7 2.04 0 0 Z " fill="#0F2D54" transform="translate(403,668)"/>
<path d="M0 0 C0.33 0.66 0.66 1.32 1 2 C1.99 2.33 2.98 2.66 4 3 C3.67 3.33 3.34 3.66 3 4 C3.66 4.66 4.32 5.32 5 6 C3.02 6.33 1.04 6.66 -1 7 C-0.67 4.69 -0.34 2.38 0 0 Z " fill="#BCBBBA" transform="translate(742,649)"/>
<path d="M0 0 C0.99 0.66 1.98 1.32 3 2 C1.35 3.98 -0.3 5.96 -2 8 C-2.6875 6.25 -2.6875 6.25 -3 4 C-1.5625 1.75 -1.5625 1.75 0 0 Z " fill="#2E5D8D" transform="translate(418,650)"/>
<path d="M0 0 C-0.66 1.32 -1.32 2.64 -2 4 C-2.99 4 -3.98 4 -5 4 C-5.33 2.68 -5.66 1.36 -6 0 C-2.25 -1.125 -2.25 -1.125 0 0 Z " fill="#1D3145" transform="translate(479,548)"/>
<path d="M0 0 C0.66 0.33 1.32 0.66 2 1 C1.67 1.99 1.34 2.98 1 4 C3.31 4 5.62 4 8 4 C8 4.33 8 4.66 8 5 C4.7 5 1.4 5 -2 5 C-1 1 -1 1 0 0 Z " fill="#1C3449" transform="translate(417,421)"/>
<path d="M0 0 C2.475 0.99 2.475 0.99 5 2 C4.01 3.485 4.01 3.485 3 5 C1.33333333 5 -0.33333333 5 -2 5 C-1.34 3.35 -0.68 1.7 0 0 Z " fill="#364C61" transform="translate(656,354)"/>
<path d="M0 0 C3.3 0.33 6.6 0.66 10 1 C6.91111478 3.05925681 6.29064073 3.2390374 2.8125 3.125 C0.9253125 3.063125 0.9253125 3.063125 -1 3 C-0.67 2.01 -0.34 1.02 0 0 Z " fill="#15273D" transform="translate(265,684)"/>
<path d="M0 0 C2.5 1.375 2.5 1.375 5 3 C5 3.66 5 4.32 5 5 C3.35 4.67 1.7 4.34 0 4 C0 2.68 0 1.36 0 0 Z " fill="#132538" transform="translate(291,679)"/>
<path d="M0 0 C0.66 0 1.32 0 2 0 C1.67 1.65 1.34 3.3 1 5 C2.65 5 4.3 5 6 5 C6 5.33 6 5.66 6 6 C3.69 6 1.38 6 -1 6 C-1.042721 4.33388095 -1.04063832 2.66617115 -1 1 C-0.67 0.67 -0.34 0.34 0 0 Z " fill="#071A33" transform="translate(326,680)"/>
<path d="M0 0 C2 2 2 2 2.125 5.125 C2.08375 6.07375 2.0425 7.0225 2 8 C-0.475 7.01 -0.475 7.01 -3 6 C-2.01 4.02 -1.02 2.04 0 0 Z " fill="#37729D" transform="translate(493,648)"/>
<path d="M0 0 C0.33 0.66 0.66 1.32 1 2 C2.32 1.67 3.64 1.34 5 1 C5 1.99 5 2.98 5 4 C4.34 4.66 3.68 5.32 3 6 C1.68 5.34 0.36 4.68 -1 4 C-0.67 2.68 -0.34 1.36 0 0 Z " fill="#898888" transform="translate(748,639)"/>
<path d="M0 0 C0.66 0 1.32 0 2 0 C2.66 0.66 3.32 1.32 4 2 C4.99 2.66 5.98 3.32 7 4 C7 4.66 7 5.32 7 6 C3.75728494 5.4409112 2.06942576 4.5867822 0 2 C0 1.34 0 0.68 0 0 Z " fill="#386196" transform="translate(344,740)"/>
<path d="M0 0 C-2.97 1.32 -5.94 2.64 -9 4 C-9.66 3.34 -10.32 2.68 -11 2 C-4.5 -1.125 -4.5 -1.125 0 0 Z " fill="#797B7A" transform="translate(766,632)"/>
<path d="M0 0 C0.66 1.32 1.32 2.64 2 4 C3.32 4 4.64 4 6 4 C6 4.66 6 5.32 6 6 C4.02 6 2.04 6 0 6 C0 4.02 0 2.04 0 0 Z " fill="#737777" transform="translate(257,571)"/>
<path d="M0 0 C0.763125 0.0825 1.52625 0.165 2.3125 0.25 C1.9825 1.24 1.6525 2.23 1.3125 3.25 C-0.9975 3.58 -3.3075 3.91 -5.6875 4.25 C-3.34903846 0.31153846 -3.34903846 0.31153846 0 0 Z " fill="#0F2337" transform="translate(461.6875,564.75)"/>
<path d="M0 0 C0.66 0.33 1.32 0.66 2 1 C0.75023244 4.65316671 0.32901247 5.78065836 -3 8 C-2.25 2.25 -2.25 2.25 0 0 Z " fill="#132A49" transform="translate(482,540)"/>
<path d="M0 0 C0.99 0.33 1.98 0.66 3 1 C3.6875 3.0625 3.6875 3.0625 4 5 C2.68 5 1.36 5 0 5 C0 3.35 0 1.7 0 0 Z " fill="#11488D" transform="translate(371,756)"/>
<path d="M0 0 C2.0625 0.4375 2.0625 0.4375 4 1 C3.34 1 2.68 1 2 1 C1.71125 1.639375 1.4225 2.27875 1.125 2.9375 C0 5 0 5 -2 6 C-1.125 1.125 -1.125 1.125 0 0 Z " fill="#244870" transform="translate(237,656)"/>
<path d="M0 0 C0 3.57575896 -1.08840607 5.05295935 -3 8 C-3.75 6.25 -3.75 6.25 -4 4 C-2.0625 1.75 -2.0625 1.75 0 0 Z " fill="#75787B" transform="translate(453,569)"/>
<path d="M0 0 C0.99 0.33 1.98 0.66 3 1 C1.35 2.65 -0.3 4.3 -2 6 C-2 2 -2 2 0 0 Z " fill="#2B567E" transform="translate(524,492)"/>
<path d="M0 0 C3.63 0 7.26 0 11 0 C11 0.33 11 0.66 11 1 C8.02148438 1.29296875 8.02148438 1.29296875 5.04296875 1.5859375 C2.70011858 1.92665391 2.70011858 1.92665391 0 4 C0 2.68 0 1.36 0 0 Z " fill="#16395E" transform="translate(474,224)"/>
</svg>
