<?xml version="1.0" encoding="UTF-8"?>
<svg version="1.1" xmlns="http://www.w3.org/2000/svg" width="1024" height="1024">
<path d="M0 0 C337.92 0 675.84 0 1024 0 C1024 337.92 1024 675.84 1024 1024 C686.08 1024 348.16 1024 0 1024 C0 686.08 0 348.16 0 0 Z " fill="#121212" transform="translate(0,0)"/>
<path d="M0 0 C337.92 0 675.84 0 1024 0 C1024 337.92 1024 675.84 1024 1024 C686.08 1024 348.16 1024 0 1024 C0 686.08 0 348.16 0 0 Z M163 98 C162.09628662 98.47904785 162.09628662 98.47904785 161.17431641 98.96777344 C139.89352436 110.27086331 121.73519973 127.04773812 107 146 C106.5654248 146.54221191 106.13084961 147.08442383 105.68310547 147.64306641 C69.00609961 193.54469754 68.49884193 257.33494627 68.63714409 313.20216262 C68.64821361 319.0404683 68.64160241 324.87876056 68.63735962 330.71707153 C68.63177368 342.10331189 68.64194846 353.48948393 68.65764758 364.87571267 C68.67442222 377.48957209 68.6765461 390.10342201 68.67716302 402.7172902 C68.6783694 427.11028863 68.6939775 451.50325522 68.71875 475.89624023 C68.74206927 498.86369066 68.75622223 521.8311218 68.75976562 544.79858398 C68.75987714 545.50722325 68.75998866 546.21586251 68.76010355 546.94597569 C68.76055245 549.80325738 68.76099443 552.66053907 68.76143598 555.51782076 C68.76165637 556.94208046 68.76187766 558.36634015 68.76209986 559.79059984 C68.76232122 561.21161398 68.76254 562.63262811 68.76275616 564.05364224 C68.76627805 586.72868204 68.77774847 609.40371823 68.7905625 632.07875443 C68.79498335 640.01353036 68.79842749 647.948306 68.80118462 655.88308267 C68.80563041 668.46258721 68.81345265 681.04208024 68.82795903 693.62157754 C68.83452982 699.36186693 68.83962607 705.1021463 68.84041977 710.84243965 C68.84121452 716.109101 68.84669584 721.37573706 68.85573927 726.64239051 C68.85821926 728.53474732 68.85909245 730.42710716 68.85808048 732.31946532 C68.85069936 749.44337813 69.14149342 766.59230063 71.625 783.5625 C71.79467285 784.72942383 71.9643457 785.89634766 72.13916016 787.09863281 C74.98611833 805.47198884 79.55805851 823.91629783 87 841 C87.31662598 841.73589355 87.63325195 842.47178711 87.95947266 843.22998047 C106.19067509 885.04839591 138.57308678 918.14623815 181 935.3125 C213.86195937 948.11899887 247.23465111 951.1580641 282.22384644 951.14044189 C284.31070037 951.14303215 286.39755381 951.14604713 288.48440659 951.1494453 C294.17028152 951.15744075 299.85614378 951.15930065 305.54202366 951.16004276 C311.69363296 951.1619064 317.84523588 951.16946007 323.99684143 951.17617798 C338.12393911 951.19041206 352.25103259 951.19628039 366.37813571 951.20086992 C373.37371598 951.20321393 380.36929543 951.20681738 387.36487507 951.2105653 C411.35704848 951.22339247 435.34922147 951.23411309 459.34139824 951.2375679 C460.84433055 951.23778953 462.34726286 951.23801131 463.85019518 951.23823325 C465.35653858 951.23845389 466.86288198 951.23867437 468.36922538 951.2388947 C471.39068151 951.23933723 474.41213763 951.23978435 477.43359375 951.24023438 C478.18272579 951.24034377 478.93185783 951.24045316 479.70369084 951.24056586 C503.97811329 951.2441941 528.25250583 951.26010966 552.52691684 951.28342474 C578.25057283 951.3080862 603.97421176 951.32174362 629.69787991 951.32293582 C632.52793765 951.32310725 635.35799539 951.32332266 638.18805313 951.32357025 C638.88478557 951.32362602 639.58151802 951.32368179 640.29936356 951.32373925 C651.45271552 951.32488406 662.60603647 951.33585689 673.759378 951.35045731 C684.99335582 951.36490777 696.227295 951.36776135 707.46128313 951.36001733 C713.53261459 951.35613585 719.60384289 951.35691672 725.67516136 951.37107468 C760.94188153 951.48064943 760.94188153 951.48064943 796 948 C796.87345558 947.87070933 797.74691116 947.74141866 798.64683509 947.60821009 C820.98379924 944.2518396 842.15538066 936.68915135 862 926 C862.60682617 925.67918457 863.21365234 925.35836914 863.83886719 925.02783203 C876.97073155 918.0508647 888.21257162 909.20432414 899 899 C899.88300781 898.18144531 900.76601563 897.36289062 901.67578125 896.51953125 C926.94150399 872.32590424 940.55405942 838.26734749 948.29660034 804.7666626 C948.72003598 802.94164561 949.16123066 801.12077443 949.60375977 799.30029297 C956.19615506 769.3384367 955.4417922 738.03002302 955.37751496 707.54200387 C955.3685299 701.68390543 955.3771567 695.82582608 955.38337708 689.96772766 C955.39278312 678.54419333 955.3863391 667.12072293 955.37411413 655.69719341 C955.36454818 646.40709618 955.36123655 637.1170137 955.36250877 627.82691193 C955.3625928 627.16283632 955.36267683 626.49876072 955.36276341 625.81456161 C955.36311575 623.11785808 955.36349978 620.42115455 955.36392899 617.72445103 C955.36787715 592.52750244 955.35525352 567.33058741 955.33440243 542.13364841 C955.31601293 519.80637566 955.31022822 497.47913498 955.31567383 475.15185547 C955.31602027 473.71615103 955.31636636 472.28044659 955.31671212 470.84474215 C955.31688311 470.13491222 955.31705411 469.42508228 955.31723029 468.69374235 C955.31808399 465.11963373 955.31890776 461.54552511 955.31969929 457.97141647 C955.31985637 457.26610543 955.32001345 456.56079439 955.32017529 455.83411028 C955.32417339 437.0994295 955.31867952 418.36475176 955.310188 399.63007283 C955.30928108 397.61233908 955.30837543 395.59460532 955.30747276 393.57687156 C955.30687167 392.23873384 955.30626305 390.90059611 955.30564686 389.56245839 C955.30114692 379.62046127 955.30111273 369.6784708 955.3031559 359.73647308 C955.30528581 348.42882644 955.29999306 337.12121047 955.28554235 325.81357244 C955.27833943 320.05478932 955.27418608 314.29605071 955.27878571 308.53726387 C955.28290476 303.25139275 955.27757755 297.96561296 955.26515963 292.6797556 C955.2622663 290.78268317 955.2626129 288.88560193 955.26680271 286.98853192 C955.38118983 229.95460035 942.16724738 170.49461024 901.37255859 128.42382812 C900.16364139 127.16975393 898.98009428 125.89132807 897.80078125 124.609375 C870.34506421 95.53246324 828.18025938 81.07954365 789.625 75.875 C788.4390625 75.70613281 787.253125 75.53726563 786.03125 75.36328125 C770.04426272 73.17068148 754.17941912 72.8504836 738.07481384 72.85282898 C735.99594876 72.8495223 733.91708431 72.84579506 731.83822066 72.8416875 C726.16502197 72.83175111 720.49183386 72.82796434 714.81862772 72.82529819 C708.68396652 72.82137019 702.54931351 72.81179391 696.41465759 72.80308533 C682.31951466 72.78432312 668.2243737 72.77407642 654.12922181 72.76562465 C647.14906817 72.76140457 640.16891537 72.75618447 633.18876243 72.75094012 C609.24899443 72.73305812 585.30922615 72.7180665 561.36945248 72.71061993 C559.86919901 72.71014519 558.36894554 72.7096693 556.86869207 72.70919226 C556.12477941 72.70895589 555.38086674 72.70871951 554.61441127 72.70847597 C550.84604957 72.70727491 547.07768787 72.70605941 543.30932617 72.70483398 C542.56151548 72.70459383 541.81370479 72.70435368 541.04323317 72.70410626 C516.82490604 72.69622218 492.60662803 72.67280454 468.38832233 72.64027804 C442.72444422 72.6058736 417.06059481 72.58625906 391.39669329 72.58297569 C388.57188673 72.58255822 385.74708018 72.58207867 382.92227364 72.58155251 C382.22683361 72.58142931 381.53139359 72.58130612 380.81487962 72.5811792 C369.68989298 72.57886051 358.56496404 72.56327594 347.43999786 72.54271066 C336.22812239 72.52231575 325.01631404 72.5173691 313.80441719 72.52648129 C307.74687323 72.53099356 301.68951416 72.52932105 295.63199615 72.50971985 C249.12782275 72.36763949 204.71543162 75.30304846 163 98 Z " fill="#D2D2D2" transform="translate(0,0)"/>
<path d="M0 0 C0.8595099 -0.00397441 1.7190198 -0.00794881 2.60457546 -0.01204365 C5.49678849 -0.02169932 8.3885163 -0.00982791 11.28071594 0.00190735 C13.35056745 -0.00051991 15.4204178 -0.00423859 17.49026489 -0.00915527 C23.12794469 -0.01858916 28.76545155 -0.00911127 34.4031179 0.00417686 C40.31762452 0.01549316 46.23212262 0.01138288 52.14663696 0.00942993 C62.10281693 0.00854556 72.05892902 0.01964507 82.01509094 0.03804016 C93.47144723 0.05908804 104.92770319 0.06274457 116.38407487 0.0564782 C127.43915657 0.05074379 138.49420347 0.05648567 149.54928017 0.06765175 C154.23243171 0.07225664 158.91556166 0.07318944 163.59871483 0.0710659 C169.14813541 0.06915537 174.69745681 0.07749467 180.24685478 0.0931263 C182.26375671 0.0973036 184.28066882 0.09826511 186.29757309 0.0954361 C230.20782782 0.04327895 273.61677604 6.33501963 312.6764679 27.3742218 C313.28329407 27.69503723 313.89012024 28.01585266 314.51533508 28.34638977 C360.13264899 52.58289573 390.41589751 97.25011788 405.6686554 145.6007843 C408.64414199 155.41627838 410.92725441 165.27115695 412.6764679 175.3742218 C412.83872864 176.27559875 413.00098938 177.17697571 413.16816711 178.10566711 C423.99206724 240.90439418 412.59764997 313.35319551 375.64619446 365.93647766 C369.82772364 374.04785545 363.55644825 381.64049542 356.82099915 389.0070343 C354.93108715 391.09316666 353.11335043 393.22071941 351.3014679 395.3742218 C339.40901006 408.92293518 324.19109192 419.40280242 308.6764679 428.3742218 C307.58721008 429.01875305 306.49795227 429.6632843 305.37568665 430.3273468 C287.92332221 440.3452905 268.38241558 446.6368869 248.6764679 450.3742218 C247.65843079 450.56903137 247.65843079 450.56903137 246.61982727 450.76777649 C233.77006847 453.09166904 220.67845788 452.57640586 207.6764679 452.3742218 C207.61189745 446.70637129 207.61898181 441.04212917 207.6764679 435.3742218 C207.68516907 434.13309631 207.68516907 434.13309631 207.69404602 432.86689758 C207.72272898 430.4302798 207.78809144 427.99728101 207.8639679 425.5617218 C207.86968811 424.80391418 207.87540833 424.04610657 207.88130188 423.26533508 C208.02903643 419.64358785 208.35903804 417.73590303 210.7780304 414.97969055 C214.13864475 413.11821818 217.10636841 412.3036009 220.8639679 411.4992218 C243.53115782 406.24920645 264.93476772 397.3009062 283.6764679 383.3742218 C284.61232727 382.68070618 285.54818665 381.98719055 286.5124054 381.2726593 C324.66129476 351.40241455 347.89544718 304.46225166 354.7311554 257.00068665 C356.0044536 246.498388 355.88283764 235.87510626 355.9264679 225.3117218 C355.9319162 224.51137512 355.9373645 223.71102844 355.94297791 222.88642883 C356.15296895 181.36880604 345.65399237 141.72791244 318.6764679 109.3742218 C317.89529602 108.42289368 317.11412415 107.47156555 316.3092804 106.4914093 C293.90546352 80.42006368 260.82452105 66.31812238 227.8639679 59.6242218 C226.82627258 59.41329895 225.78857727 59.2023761 224.71943665 58.98506165 C212.78542122 56.66561573 201.05350514 56.22968537 188.92378235 56.26069641 C187.34049831 56.26100334 185.75721414 56.26086824 184.17393017 56.26033115 C179.96453622 56.26010699 175.75517117 56.26586914 171.545784 56.27294159 C167.58425819 56.27867033 163.62273912 56.27890654 159.66120911 56.27961731 C148.1037916 56.284848 136.54637937 56.29880926 124.9889679 56.3117218 C99.1458429 56.3323468 73.3027179 56.3529718 46.6764679 56.3742218 C46.6764679 146.4642218 46.6764679 236.5542218 46.6764679 329.3742218 C145.19509741 337.38887021 145.19509741 337.38887021 232.9889679 299.4367218 C254.50402234 277.02949604 259.26802264 249.44610302 258.9499054 219.5148468 C258.73151311 211.20729086 257.57199853 204.17844787 254.6764679 196.3742218 C254.43509094 195.71180481 254.19371399 195.04938782 253.94502258 194.36689758 C247.58393021 177.3039674 237.4223055 163.83395772 220.8639679 155.6007843 C211.75517821 152.09568631 202.75715069 152.03709836 193.14131165 151.9601593 C191.65200769 151.94141705 190.16271401 151.92184143 188.6734314 151.901474 C184.78229371 151.85046926 180.89112171 151.81067569 176.99983215 151.77333069 C173.01761103 151.7330908 169.03552871 151.68209036 165.05342102 151.6320343 C157.26119904 151.53565068 149.46890906 151.45112767 141.6764679 151.3742218 C140.78349554 155.20791325 140.54113255 158.77542468 140.51824951 162.70803833 C140.50846069 163.98544891 140.49867188 165.2628595 140.48858643 166.57897949 C140.482683 167.98704491 140.47687251 169.39511073 140.47114563 170.80317688 C140.46156148 172.29158293 140.45155109 173.77998629 140.44114685 175.26838684 C140.41414986 179.3030688 140.39311217 183.33776239 140.37314487 187.37248445 C140.35125315 191.59123995 140.32388006 195.8099598 140.29708862 200.02868652 C140.24720479 208.01480111 140.20224999 216.00093554 140.15906626 223.98708886 C140.10965703 233.08016294 140.05475258 242.17320125 139.99938667 251.26624072 C139.88563277 269.96886932 139.77950481 288.67153087 139.6764679 307.3742218 C121.5264679 307.3742218 103.3764679 307.3742218 84.6764679 307.3742218 C84.63137075 280.41931393 84.59450775 253.46443647 84.57284355 226.5095005 C84.56251842 213.99466733 84.54843452 201.47985921 84.52558899 188.96504211 C84.50569291 178.06076808 84.49276047 167.15651219 84.48829091 156.25222051 C84.4856771 150.47520349 84.47950797 144.69823838 84.46500778 138.92123795 C84.45148356 133.48931785 84.44723474 128.05747129 84.45025253 122.62553596 C84.44970005 120.62680093 84.44569202 118.62806356 84.43805695 116.62934303 C84.42817633 113.91055395 84.43047363 111.19204629 84.43595886 108.47325134 C84.43013318 107.67365073 84.4243075 106.87405011 84.41830528 106.05021918 C84.44822547 100.60246422 84.44822547 100.60246422 86.6764679 98.3742218 C89.26167297 98.05537415 89.26167297 98.05537415 92.69599915 97.9601593 C93.34895966 97.94056656 94.00192017 97.92097382 94.67466736 97.90078735 C96.94597159 97.83796349 99.21720844 97.79240322 101.4889679 97.7492218 C102.29125824 97.73186981 103.09354858 97.71451782 103.92015076 97.69664001 C111.17174774 97.54377975 118.42376029 97.45530468 125.6764679 97.3742218 C126.7265377 97.36195934 126.7265377 97.36195934 127.79782104 97.34944916 C138.51827967 97.22439932 149.23844346 97.1383274 159.95951843 97.08912659 C163.36493833 97.07297146 166.77010317 97.04784905 170.17539978 97.01478577 C210.87905644 96.63702446 249.08765836 101.33311911 280.0514679 130.2492218 C302.42262894 154.19373923 313.04176106 187.04794607 313.6764679 219.3742218 C313.69693176 220.17972473 313.71739563 220.98522766 313.73847961 221.81513977 C314.71446994 264.54093095 304.34372471 305.55616286 274.6764679 337.3742218 C253.76230403 358.89264722 224.94713817 371.13060723 196.1764679 377.7492218 C195.15891418 377.98794006 194.14136047 378.22665833 193.0929718 378.47261047 C170.54514869 383.32736292 147.34957924 382.68904197 124.41857934 382.67580438 C120.69970034 382.67472224 116.98083796 382.67964752 113.26196259 382.6844098 C104.50029692 382.69541724 95.7386742 382.69598736 86.977005 382.68989563 C77.94702564 382.68381461 68.91720047 382.69629053 59.88724738 382.7174657 C52.10167333 382.73504908 44.31614861 382.74108964 36.53055543 382.73782796 C31.89343835 382.73601532 27.25643225 382.73865263 22.61933327 382.7525425 C18.27786632 382.76506877 13.93664349 382.76322662 9.59518051 382.75013161 C8.00160198 382.74775776 6.40800647 382.75052928 4.8144474 382.75875473 C2.64437252 382.76915254 0.47512845 382.76118006 -1.69491577 382.7484436 C-2.9098405 382.74861135 -4.12476522 382.74877909 -5.37650585 382.74895191 C-8.3235321 382.3742218 -8.3235321 382.3742218 -9.98412603 381.2403571 C-11.93099861 378.52786556 -11.69963643 376.46119269 -11.70105553 373.1413269 C-11.70887877 371.82744712 -11.71670201 370.51356733 -11.72476232 369.15987301 C-11.71827548 367.6929913 -11.71150549 366.22611081 -11.70448303 364.75923157 C-11.70793743 363.20785219 -11.71270052 361.65647526 -11.71866477 360.10510349 C-11.7312345 355.83061531 -11.72497739 351.55632702 -11.71570611 347.28183794 C-11.7089403 342.67645924 -11.71938455 338.0711158 -11.72764587 333.46574402 C-11.74101186 324.43931884 -11.73809274 315.41296833 -11.72940795 306.38654017 C-11.72264306 299.05301089 -11.7217095 291.71950258 -11.7249794 284.38597107 C-11.7254391 283.34370788 -11.7258988 282.30144469 -11.72637243 281.22759777 C-11.72733157 279.11050756 -11.72830421 276.99341736 -11.7292902 274.87632716 C-11.73785249 255.00693679 -11.72799682 235.1375879 -11.7118891 215.26820433 C-11.69848517 198.20554094 -11.70081302 181.14293877 -11.71464539 164.08027649 C-11.7306864 144.28379654 -11.73702844 124.48735297 -11.72780859 104.69086742 C-11.72685291 102.58140247 -11.7259098 100.4719375 -11.7249794 98.36247253 C-11.72451657 97.32447417 -11.72405375 96.28647581 -11.7235769 95.21702296 C-11.72098256 87.88913417 -11.72536753 80.5612684 -11.73241806 73.23338318 C-11.74081686 64.3076743 -11.73858716 55.38204461 -11.72257583 46.45634484 C-11.71467121 41.89905833 -11.71163863 37.34190402 -11.72152328 32.78461838 C-11.73042558 28.6173358 -11.72561166 24.45030868 -11.70959063 20.28304946 C-11.70622378 18.77098529 -11.70797929 17.25889978 -11.71521799 15.74684918 C-11.72426829 13.70028625 -11.71324129 11.65366336 -11.70105553 9.6071167 C-11.70056847 8.46768332 -11.70008141 7.32824995 -11.6995796 6.15428829 C-11.3235321 3.3742218 -11.3235321 3.3742218 -10.02770072 1.5080865 C-7.02251627 -0.49140611 -3.49048157 -0.03187381 0 0 Z " fill="#E6E6E4" transform="translate(314.3235321044922,185.6257781982422)"/>
<path d="M0 0 C3.31735538 2.05989176 6.17496728 4.30949265 9 7 C9.55042969 7.51046875 10.10085938 8.0209375 10.66796875 8.546875 C18.68376107 16.87175957 21.57833864 26.35578529 21.625 37.625 C21.36488523 51.22169075 17.30533797 61.26014378 7.8984375 71.2265625 C-1.76379584 80.34252116 -11.46110005 83.49946456 -24.4921875 83.27734375 C-37.63355194 82.71937707 -48.2167273 76.60328821 -57.14453125 67.265625 C-66.41148293 55.95018926 -68.16601003 43.77293998 -66.7578125 29.5546875 C-64.88298579 18.87965379 -58.43891223 9.59209861 -50 3 C-46.11607537 0.69731695 -42.15169679 -1.23146994 -38 -3 C-37.24074219 -3.37382813 -36.48148437 -3.74765625 -35.69921875 -4.1328125 C-24.27335473 -7.80364002 -10.41383742 -5.34146441 0 0 Z " fill="#E6E5E4" transform="translate(413,775)"/>
<path d="M0 0 C1.38977051 0.01135986 1.38977051 0.01135986 2.80761719 0.02294922 C9.43497542 0.1831942 14.82015466 0.93314096 20.5625 4.4375 C21.32304688 4.86160156 22.08359375 5.28570313 22.8671875 5.72265625 C33.49475604 12.14571535 39.10493521 20.61055091 42.5625 32.4375 C45.10450512 45.24592578 43.30069363 56.06526194 36.8359375 67.48828125 C32.18978125 74.40015568 26.66522784 79.14963163 19.5625 83.4375 C18.840625 83.89253906 18.11875 84.34757813 17.375 84.81640625 C8.21514465 89.51083212 -4.70906667 88.69336333 -14.59765625 86.84765625 C-25.86775404 82.87105264 -36.48993415 73.53848636 -41.7109375 62.82421875 C-46.57962016 51.17045707 -46.94110549 38.84423911 -42.5078125 26.94140625 C-37.41592821 15.68658614 -28.87287355 7.35462753 -17.48803711 2.62817383 C-11.60804683 0.43786933 -6.24474314 -0.07150469 0 0 Z " fill="#E2E2E0" transform="translate(662.4375,769.5625)"/>
<path d="M0 0 C6.991875 -0.061875 13.98375 -0.12375 21.1875 -0.1875 C24.45563599 -0.22846802 24.45563599 -0.22846802 27.78979492 -0.27026367 C42.80867516 -0.38116489 56.05963791 -0.07598278 67.70703125 10.55859375 C78.165264 21.59931035 79.67035044 36.39306639 79.3828125 50.83203125 C78.98188756 58.78851655 76.25633115 66.65868739 70.69921875 72.56640625 C59.99000601 81.60153516 50.51022758 85.50821219 36.62109375 85.29296875 C35.68656372 85.28994751 34.75203369 85.28692627 33.78918457 85.28381348 C30.33850875 85.26826042 26.88799185 85.22637781 23.4375 85.1875 C11.8359375 85.0946875 11.8359375 85.0946875 0 85 C0 56.95 0 28.9 0 0 Z " fill="#E6E5E3" transform="translate(277,663)"/>
<path d="M0 0 C0.86212601 -0.01606293 1.72425201 -0.03212585 2.61250305 -0.04867554 C6.60445424 -0.09329647 10.59623551 -0.13428855 14.58837891 -0.15722656 C16.68224285 -0.17367432 18.77605331 -0.20081344 20.86962891 -0.23925781 C36.48596001 -0.52447628 48.87404423 0.13773439 60.94604492 11.19287109 C70.08390601 20.04927856 73.02088303 29.1592907 73.25854492 41.75537109 C73.28431647 54.15005284 69.69793612 65.00443521 61.13354492 74.12255859 C51.37333684 83.29243151 40.08934177 86.54244474 26.97729492 86.38818359 C25.59592346 86.38393875 25.59592346 86.38393875 24.18664551 86.37960815 C21.2729744 86.36849885 18.35962161 86.34341188 15.44604492 86.31787109 C13.45907022 86.30782932 11.47209066 86.29870558 9.48510742 86.29052734 C4.6386324 86.26858988 -0.20760755 86.23412471 -5.05395508 86.19287109 C-5.07707791 75.12752252 -5.09486986 64.06217964 -5.10576725 52.99681187 C-5.11099621 47.85927543 -5.11809409 42.72175547 -5.12939453 37.58422852 C-5.14022295 32.63055699 -5.14623181 27.67690136 -5.14883232 22.72321892 C-5.15068665 20.82889493 -5.15430742 18.93457186 -5.15968513 17.04025459 C-5.16689497 14.39652724 -5.16794605 11.75286639 -5.16748047 9.10913086 C-5.17107574 8.31791336 -5.17467102 7.52669586 -5.17837524 6.71150208 C-5.16566754 0.08729589 -5.16566754 0.08729589 0 0 Z " fill="#E6E5E3" transform="translate(228.053955078125,770.80712890625)"/>
<path d="M0 0 C6.27 0 12.54 0 19 0 C19 28.38 19 56.76 19 86 C0 86 0 86 -4.20703125 83.16796875 C-5.58081055 81.27661133 -5.58081055 81.27661133 -6.8125 79.1875 C-7.30854736 78.47553467 -7.80459473 77.76356934 -8.31567383 77.0300293 C-9.37256895 75.50815959 -10.40408044 73.96838662 -11.41113281 72.41308594 C-13.60132405 69.08674141 -15.98669929 65.9220406 -18.37426758 62.73583984 C-20.16526579 60.34221546 -21.93132434 57.93204649 -23.69140625 55.515625 C-26.62654432 51.49795842 -29.60062308 47.51339694 -32.625 43.5625 C-33.38039063 42.57378906 -34.13578125 41.58507812 -34.9140625 40.56640625 C-36.82664155 38.21328933 -38.84139769 36.12393162 -41 34 C-40.92273682 34.77424316 -40.84547363 35.54848633 -40.76586914 36.34619141 C-39.83613935 47.0647915 -40.09102858 57.63537311 -40.4375 68.375 C-40.49087532 70.19008543 -40.54361387 72.00518971 -40.59570312 73.8203125 C-40.72314576 78.21379292 -40.85914324 82.60693003 -41 87 C-44.14581423 87.02888514 -47.29159469 87.04675923 -50.4375 87.0625 C-51.33533203 87.07087891 -52.23316406 87.07925781 -53.15820312 87.08789062 C-54.43920898 87.09272461 -54.43920898 87.09272461 -55.74609375 87.09765625 C-56.53685303 87.10289307 -57.3276123 87.10812988 -58.14233398 87.11352539 C-60 87 -60 87 -61 86 C-61.09511266 83.35261911 -61.12555635 80.73140999 -61.11352539 78.08374023 C-61.11367142 77.25454071 -61.11381744 76.42534119 -61.1139679 75.5710144 C-61.11326851 72.81684802 -61.10547493 70.06274839 -61.09765625 67.30859375 C-61.09579216 65.40430234 -61.09436822 63.50001045 -61.09336853 61.59571838 C-61.08954263 56.57332037 -61.07971173 51.55095108 -61.06866455 46.52856445 C-61.05845198 41.4077188 -61.05387124 36.28686852 -61.04882812 31.16601562 C-61.03808953 21.11066443 -61.02101224 11.0553346 -61 1 C-57.64026891 0.79146089 -54.28221336 0.66601519 -50.91796875 0.5546875 C-49.49961731 0.46513794 -49.49961731 0.46513794 -48.0526123 0.3737793 C-41.10237772 0.20142195 -41.10237772 0.20142195 -37.88298321 2.53359699 C-34.99517552 5.58206312 -32.56502874 8.88442583 -30.55078125 12.57421875 C-28.27308175 16.57548958 -25.73658001 20.24124855 -23 23.9375 C-22.19213609 25.06804944 -21.38750143 26.20091266 -20.5859375 27.3359375 C-20.1744043 27.91827148 -19.76287109 28.50060547 -19.33886719 29.10058594 C-17.84153303 31.22481273 -16.34636848 33.35055592 -14.8515625 35.4765625 C-14.3153125 36.238479 -13.7790625 37.00039551 -13.2265625 37.78540039 C-12.18579625 39.26516058 -11.14664171 40.74605612 -10.109375 42.22827148 C-5.88114216 49.01902828 -5.88114216 49.01902828 0 54 C-0.16233124 53.27725891 -0.32466248 52.55451782 -0.49191284 51.80987549 C-0.97376941 49.14506308 -1.12683042 46.74469792 -1.12939453 44.04199219 C-1.13254669 43.08460144 -1.13569885 42.12721069 -1.13894653 41.14080811 C-1.1369223 40.11981018 -1.13489807 39.09881226 -1.1328125 38.046875 C-1.13376923 36.99091125 -1.13472595 35.93494751 -1.13571167 34.84698486 C-1.13639087 32.62129659 -1.13455471 30.39560632 -1.13037109 28.16992188 C-1.12499788 24.74865326 -1.13033579 21.32751466 -1.13671875 17.90625 C-1.13605834 15.74479138 -1.13477795 13.58333283 -1.1328125 11.421875 C-1.13483673 10.39278015 -1.13686096 9.3636853 -1.13894653 8.30340576 C-1.13421829 6.8862326 -1.13421829 6.8862326 -1.12939453 5.44042969 C-1.12859894 4.60501648 -1.12780334 3.76960327 -1.12698364 2.90887451 C-1 1 -1 1 0 0 Z " fill="#E3E2E0" transform="translate(528,662)"/>
<path d="M0 0 C1.19302734 -0.0937793 1.19302734 -0.0937793 2.41015625 -0.18945312 C5.99041977 -0.28645534 8.40383559 -0.19392339 11.28955078 2.05371094 C13.15545192 4.13269498 14.77293909 6.27435258 16.375 8.5625 C16.91753418 9.30266357 17.46006836 10.04282715 18.01904297 10.80541992 C19.71662474 13.1588054 21.36215115 15.54221109 23 17.9375 C24.21763514 19.69738646 25.43641245 21.45648314 26.65625 23.21484375 C27.26984375 24.10026855 27.8834375 24.98569336 28.515625 25.89794922 C31.46823206 30.12914058 34.47820836 34.31804846 37.5 38.5 C38.03189941 39.23847168 38.56379883 39.97694336 39.11181641 40.73779297 C41.25944476 43.70586361 43.41416832 46.61013539 45.7421875 49.44140625 C47.375 51.5625 47.375 51.5625 47.375 53.5625 C48.035 53.5625 48.695 53.5625 49.375 53.5625 C49.37277939 52.91326065 49.37055878 52.2640213 49.36827087 51.59510803 C49.34621998 44.86362252 49.33109423 38.13214719 49.32006836 31.40063477 C49.31502637 28.88533105 49.30819297 26.37003028 49.29956055 23.85473633 C49.28748906 20.24820225 49.28177051 16.64170677 49.27734375 13.03515625 C49.27218246 11.90288101 49.26702118 10.77060577 49.26170349 9.60401917 C49.26162796 8.56301559 49.26155243 7.52201202 49.26147461 6.44946289 C49.259254 5.52790909 49.25703339 4.60635529 49.25474548 3.65687561 C49.375 1.5625 49.375 1.5625 50.375 0.5625 C53.23767567 0.48924832 56.075719 0.47011795 58.9375 0.5 C59.74380859 0.50451172 60.55011719 0.50902344 61.38085938 0.51367188 C63.37893756 0.52549482 65.37697783 0.54343086 67.375 0.5625 C68.01204377 22.5828668 68.47940316 44.5945746 68.5 66.625 C68.50249756 67.57476715 68.50499512 68.5245343 68.50756836 69.50308228 C68.51338657 72.18047874 68.5120169 74.85775892 68.5078125 77.53515625 C68.50979645 78.33733582 68.5117804 79.13951538 68.51382446 79.96600342 C68.49035403 85.44714597 68.49035403 85.44714597 67.375 86.5625 C61.34361923 87.86586343 55.30667341 88.66919047 49.375 86.5625 C43.95787587 82.31238369 40.5552855 76.0094338 37.02197266 70.20507812 C34.4784293 66.12394659 31.61159122 62.29876807 28.75 58.4375 C22.53243711 49.87853694 16.4755683 41.20497176 10.375 32.5625 C10.045 50.3825 9.715 68.2025 9.375 86.5625 C3.105 86.5625 -3.165 86.5625 -9.625 86.5625 C-9.64755049 75.49714779 -9.66591478 64.43181072 -9.67681217 53.36644077 C-9.68204113 48.22890434 -9.68913901 43.09138437 -9.70043945 37.95385742 C-9.71126787 33.0001859 -9.71727674 28.04653026 -9.71987724 23.09284782 C-9.72173157 21.19852384 -9.72535234 19.30420076 -9.73073006 17.4098835 C-9.73793989 14.76615614 -9.73899097 12.12249529 -9.73852539 9.47875977 C-9.74212067 8.68754227 -9.74571594 7.89632477 -9.74942017 7.08113098 C-9.73437008 -0.76410071 -7.10975642 0.24072404 0 0 Z " fill="#DFDEDC" transform="translate(729.625,769.4375)"/>
<path d="M0 0 C1.58206057 0.00667536 3.16410534 0.0186375 4.74609375 0.03515625 C5.55240234 0.03966797 6.35871094 0.04417969 7.18945312 0.04882812 C9.18753131 0.06065107 11.18557158 0.07858711 13.18359375 0.09765625 C14.27959557 53.64800585 14.27959557 53.64800585 14.30859375 71.78515625 C14.31310547 72.93201904 14.31761719 74.07888184 14.32226562 75.26049805 C14.32033203 76.28312744 14.31839844 77.30575684 14.31640625 78.359375 C14.31527832 79.21490967 14.31415039 80.07044434 14.31298828 80.9519043 C14.18359375 83.09765625 14.18359375 83.09765625 13.18359375 86.09765625 C-2.23960538 88.0633581 -2.23960538 88.0633581 -7.78125 83.8359375 C-9.91293194 81.00906478 -11.7820063 78.19009797 -13.57080078 75.14257812 C-15.83619004 71.42346789 -18.48615552 67.97680445 -21.06640625 64.47265625 C-22.16449036 62.94785892 -23.26081357 61.42179209 -24.35546875 59.89453125 C-28.01401144 54.81006259 -31.72277142 49.76327838 -35.44140625 44.72265625 C-36.0334082 43.92005371 -36.62541016 43.11745117 -37.23535156 42.29052734 C-39.75068443 38.88395204 -42.2745736 35.48451291 -44.81640625 32.09765625 C-44.81418564 32.75942368 -44.81196503 33.4211911 -44.80967712 34.10301208 C-44.7876266 40.96425845 -44.77250063 47.82549482 -44.76147461 54.68676758 C-44.75643255 57.25057382 -44.74959911 59.81437716 -44.7409668 62.37817383 C-44.72889561 66.05420646 -44.72317683 69.73020123 -44.71875 73.40625 C-44.71358871 74.56039902 -44.70842743 75.71454803 -44.70310974 76.90367126 C-44.70299644 78.49520775 -44.70299644 78.49520775 -44.70288086 80.11889648 C-44.70066025 81.05821518 -44.69843964 81.99753387 -44.69615173 82.96531677 C-44.81640625 85.09765625 -44.81640625 85.09765625 -45.81640625 86.09765625 C-51.75640625 86.09765625 -57.69640625 86.09765625 -63.81640625 86.09765625 C-63.81640625 58.04765625 -63.81640625 29.99765625 -63.81640625 1.09765625 C-57.54640625 1.09765625 -51.27640625 1.09765625 -44.81640625 1.09765625 C-38.0662123 8.97288252 -38.0662123 8.97288252 -35.73828125 12.2265625 C-35.22233398 12.94440918 -34.70638672 13.66225586 -34.17480469 14.40185547 C-33.6440332 15.14709473 -33.11326172 15.89233398 -32.56640625 16.66015625 C-31.71997559 17.83989014 -31.71997559 17.83989014 -30.85644531 19.04345703 C-28.25161703 22.676817 -25.65847512 26.31846904 -23.06640625 29.9609375 C-22.23317593 31.13158374 -21.39984643 32.3021594 -20.56640625 33.47265625 C-19.97146362 34.30845215 -19.97146362 34.30845215 -19.36450195 35.16113281 C-13.04841329 44.52260371 -13.04841329 44.52260371 -5.81640625 53.09765625 C-5.80609879 52.4484169 -5.79579132 51.79917755 -5.78517151 51.13026428 C-5.67734489 44.39866573 -5.56272844 37.66720755 -5.4440918 30.93579102 C-5.40066619 28.42052129 -5.35899696 25.90522062 -5.3190918 23.38989258 C-5.26157332 19.78327081 -5.19782658 16.17680594 -5.1328125 12.5703125 C-5.11610001 11.43803726 -5.09938751 10.30576202 -5.08216858 9.13917542 C-5.06222336 8.09817184 -5.04227814 7.05716827 -5.02172852 5.98461914 C-5.00618423 5.06306534 -4.99063995 4.14151154 -4.97462463 3.19203186 C-4.69355784 -0.52851834 -3.93250183 0.10062697 0 0 Z " fill="#E4E4E2" transform="translate(511.81640625,769.90234375)"/>
<path d="M0 0 C7.92 0 15.84 0 24 0 C28.63745772 11.37425948 33.25485406 22.75643128 37.84960938 34.14801025 C38.62657677 36.07422818 39.40393015 38.00029046 40.18164062 39.9262085 C42.56253922 45.8242002 44.93323355 51.72613225 47.29104614 57.63339233 C48.05404209 59.54119701 48.82004523 61.44780181 49.58908081 63.35317993 C50.6704531 66.03434167 51.74081311 68.71965176 52.80859375 71.40625 C53.29501343 72.60238167 53.29501343 72.60238167 53.79125977 73.82267761 C54.08371582 74.56504166 54.37617188 75.3074057 54.67749023 76.07226562 C54.93425034 76.71345337 55.19101044 77.35464111 55.45555115 78.01525879 C56 80 56 80 56 85 C49.4 85 42.8 85 36 85 C33.69 80.05 31.38 75.1 29 70 C16.79 70 4.58 70 -8 70 C-12.79593069 79.67187679 -12.79593069 79.67187679 -14 85 C-20.6 85.33 -27.2 85.66 -34 86 C-35.12699223 82.61902331 -34.95794865 82.23658612 -33.62329102 79.1315918 C-33.29391541 78.35223267 -32.96453979 77.57287354 -32.62518311 76.76989746 C-32.07015106 75.4974115 -32.07015106 75.4974115 -31.50390625 74.19921875 C-31.12365295 73.30650269 -30.74339966 72.41378662 -30.35162354 71.49401855 C-29.09735506 68.55467287 -27.82990956 65.62120034 -26.5625 62.6875 C-25.69715799 60.66554933 -24.83282686 58.64316574 -23.96948242 56.62036133 C-22.19637091 52.46791309 -20.41894675 48.31735052 -18.63867188 44.16796875 C-15.00789171 35.69459648 -11.43590168 27.19661005 -7.8666687 18.69717407 C-6.52147434 15.49465116 -5.17389145 12.29313647 -3.82606506 9.09172058 C-2.55032935 6.06130729 -1.27522145 3.03062973 0 0 Z " fill="#E4E3E1" transform="translate(397,663)"/>
<path d="M0 0 C15.0665625 -0.0309375 15.0665625 -0.0309375 30.4375 -0.0625 C33.6130249 -0.071604 36.7885498 -0.08070801 40.06030273 -0.09008789 C42.55973264 -0.09300677 45.05916302 -0.09555539 47.55859375 -0.09765625 C48.87057739 -0.10277222 50.18256104 -0.10788818 51.53430176 -0.11315918 C53.39182068 -0.11334045 53.39182068 -0.11334045 55.28686523 -0.11352539 C56.36830307 -0.115746 57.44974091 -0.11796661 58.56394958 -0.12025452 C61 0 61 0 62 1 C62.09909302 3.33160055 62.12970504 5.66629942 62.125 8 C62.12886719 9.918125 62.12886719 9.918125 62.1328125 11.875 C62 15 62 15 61 16 C57.97022196 16.08871273 54.96332978 16.1151935 51.93359375 16.09765625 C51.02497086 16.0962413 50.11634796 16.09482635 49.18019104 16.09336853 C46.26592779 16.08775193 43.35174019 16.07519665 40.4375 16.0625 C38.46679798 16.05748714 36.49609476 16.05292386 34.52539062 16.04882812 C29.68354086 16.03862617 24.84185553 16.01905409 20 16 C20 21.94 20 27.88 20 34 C32.54 34 45.08 34 58 34 C58 39.28 58 44.56 58 50 C45.46 50 32.92 50 20 50 C20 55.61 20 61.22 20 67 C34.19 67 48.38 67 63 67 C63 72.61 63 78.22 63 84 C62 85 62 85 59.52598572 85.12025452 C58.42678299 85.11803391 57.32758026 85.11581329 56.19506836 85.11352539 C54.93641968 85.11340454 53.677771 85.11328369 52.38098145 85.11315918 C51.03393505 85.10812272 49.68688913 85.10295608 48.33984375 85.09765625 C47.12204224 85.09664917 45.90424072 85.09564209 44.64953613 85.09460449 C40.07884791 85.08935295 35.50817306 85.07539185 30.9375 85.0625 C20.728125 85.041875 10.51875 85.02125 0 85 C0 56.95 0 28.9 0 0 Z " fill="#E2E1E0" transform="translate(609,663)"/>
<path d="M0 0 C3.47716693 2.53704402 6.62477487 5.37345403 9.546875 8.5390625 C8.16499047 11.74950132 6.62265597 13.58842615 3.921875 15.7890625 C3.29023437 16.30984375 2.65859375 16.830625 2.0078125 17.3671875 C1.52570312 17.75390625 1.04359375 18.140625 0.546875 18.5390625 C-0.24976563 18.12914062 -1.04640625 17.71921875 -1.8671875 17.296875 C-2.92679688 16.75804687 -3.98640625 16.21921875 -5.078125 15.6640625 C-6.12226562 15.13039063 -7.16640625 14.59671875 -8.2421875 14.046875 C-14.66479826 11.0309045 -19.52640436 9.73495465 -26.453125 11.5390625 C-29.52408043 13.61195741 -30.26070083 15.00706627 -31.515625 18.4765625 C-31.75898793 21.72505865 -31.75898793 21.72505865 -29.265625 24.2890625 C-24.71307604 27.93110167 -21.0828454 28.90964518 -15.328125 29.9140625 C-5.44556332 31.77445025 3.59918773 34.16087679 10.01953125 42.4375 C13.98573794 48.55805294 14.71301093 54.37975256 13.546875 61.5390625 C10.83600897 69.5597441 5.0341943 75.06351624 -2.25 79.08203125 C-13.04194331 84.07260607 -22.40953044 83.50384136 -33.453125 79.5390625 C-41.51432562 76.40551653 -47.30280997 71.54543399 -53.453125 65.5390625 C-52.88258835 61.76670821 -51.28669079 59.91190199 -48.640625 57.2265625 C-47.95355469 56.50855469 -47.26648438 55.79054688 -46.55859375 55.05078125 C-44.453125 53.5390625 -44.453125 53.5390625 -42.3828125 53.6328125 C-40.26836396 54.62583287 -39.02986164 55.69555618 -37.390625 57.3515625 C-31.02108705 62.99976389 -23.04695616 65.23277624 -14.62109375 64.87109375 C-11.68051926 64.42073549 -9.72440513 63.44400712 -7.453125 61.5390625 C-6.03270679 58.69822609 -6.13860228 56.68428972 -6.453125 53.5390625 C-9.2080188 50.13267892 -11.54056409 48.89635926 -15.7421875 47.828125 C-16.76699219 47.55226563 -17.79179688 47.27640625 -18.84765625 46.9921875 C-20.97743124 46.44622342 -23.10763114 45.90191384 -25.23828125 45.359375 C-33.85632906 43.03540705 -42.38773287 40.14089369 -47.515625 32.4140625 C-50.84743743 26.5092846 -51.36199592 20.20117457 -50.453125 13.5390625 C-47.13033704 4.96847658 -41.00694083 -0.57095742 -32.765625 -4.3359375 C-22.12913592 -7.80526109 -9.49173045 -5.65271845 0 0 Z " fill="#E3E2E0" transform="translate(592.453125,775.4609375)"/>
<path d="M0 0 C6.6 0 13.2 0 20 0 C20 22.11 20 44.22 20 67 C32.79008196 66.63142902 32.79008196 66.63142902 45.57983398 66.25170898 C47.17690945 66.20776436 48.77399543 66.16419952 50.37109375 66.12109375 C51.20805786 66.09438599 52.04502197 66.06767822 52.90734863 66.04016113 C54.93760107 65.98778552 56.96910723 65.98805278 59 66 C63.48454135 70.48454135 60 78.6579008 60 85 C40.2 85 20.4 85 0 85 C0 56.95 0 28.9 0 0 Z " fill="#E2E1E0" transform="translate(690,663)"/>
<path d="M0 0 C6.72578712 3.75417363 12.02889464 9.29805134 14.37890625 16.7421875 C16.10362564 25.72315872 15.42191717 35.4808383 10.3359375 43.2578125 C5.41438671 49.34795069 0.86604737 52.56076112 -6.97265625 53.41015625 C-13.69361135 53.76264562 -20.06194465 53.8849563 -25.58203125 49.546875 C-26.37673828 48.78117188 -26.37673828 48.78117188 -27.1875 48 C-27.74824219 47.46890625 -28.30898438 46.9378125 -28.88671875 46.390625 C-35.52586284 39.3817465 -36.89517818 32.1328725 -36.66015625 22.609375 C-35.65582566 14.93994139 -32.35509863 8.28111626 -26.25 3.4375 C-17.61956512 -2.09315676 -9.63793539 -4.33560619 0 0 Z " fill="#121212" transform="translate(672.1875,787)"/>
<path d="M0 0 C6.35137784 3.86276301 9.83492825 9.50055176 12.29296875 16.39453125 C12.73453251 19.17928123 12.8181246 21.89053089 12.79296875 24.70703125 C12.78724854 25.45251221 12.78152832 26.19799316 12.77563477 26.96606445 C12.51304431 35.10990521 9.96362006 41.14599782 4.04296875 46.83203125 C-1.66017623 51.18962904 -8.30150218 53.02070544 -15.44140625 52.74609375 C-23.71345412 51.46250011 -28.94015667 47.03099499 -33.89453125 40.51953125 C-38.1248794 33.22582754 -38.77103905 25.71659226 -37.70703125 17.39453125 C-35.12857282 9.39372643 -31.19066834 3.40310757 -23.70703125 -0.60546875 C-15.9357177 -4.21536924 -7.71572453 -3.47146271 0 0 Z " fill="#111111" transform="translate(402.70703125,788.60546875)"/>
<path d="M0 0 C26.22857143 0 26.22857143 0 32.75 5.1875 C37.89268231 11.61585289 39.68988995 17.24099499 39.5 25.4375 C39.48078491 26.69373169 39.48078491 26.69373169 39.46118164 27.9753418 C39.22838142 35.05260662 38.2629012 40.45874703 33.3515625 45.7890625 C23.35544728 54.99945687 15.07660673 52 0 52 C0 34.84 0 17.68 0 0 Z " fill="#111111" transform="translate(242,787)"/>
<path d="M0 0 C0.93005859 -0.02900391 1.86011719 -0.05800781 2.81835938 -0.08789062 C10.12247739 -0.15461834 15.37877768 1.24155622 20.9609375 6.05859375 C21.62996094 6.89583984 21.62996094 6.89583984 22.3125 7.75 C22.77398437 8.30558594 23.23546875 8.86117187 23.7109375 9.43359375 C27.06750161 14.57533686 27.27464156 19.15681401 27.25 25.125 C27.26611328 25.89392578 27.28222656 26.66285156 27.29882812 27.45507812 C27.30425316 33.88374545 26.26555142 39.51689013 22.0703125 44.5546875 C21.07644531 45.36292969 21.07644531 45.36292969 20.0625 46.1875 C19.07636719 47.01894531 19.07636719 47.01894531 18.0703125 47.8671875 C14.01940271 50.61230952 10.50625106 51.56476609 5.63671875 51.5078125 C4.66025391 51.50136719 3.68378906 51.49492188 2.67773438 51.48828125 C1.67033203 51.47152344 0.66292969 51.45476563 -0.375 51.4375 C-1.40173828 51.42847656 -2.42847656 51.41945313 -3.48632812 51.41015625 C-6.01195899 51.38666201 -8.5371081 51.35381131 -11.0625 51.3125 C-11.08776787 44.21005001 -11.10533201 37.10761152 -11.11743164 30.00512695 C-11.12247349 27.58682828 -11.12930678 25.16853267 -11.13793945 22.75024414 C-11.15001157 19.28270717 -11.15572963 15.81521034 -11.16015625 12.34765625 C-11.16531754 11.25912857 -11.17047882 10.17060089 -11.17579651 9.04908752 C-11.17587204 8.04812546 -11.17594757 7.04716339 -11.17602539 6.01586914 C-11.178246 5.12984512 -11.18046661 4.24382111 -11.18275452 3.33094788 C-10.88048878 -1.74252164 -3.86799975 0.0390707 0 0 Z " fill="#111111" transform="translate(308.0625,679.6875)"/>
<path d="M0 0 C6.6 0 13.2 0 20 0 C20 28.05 20 56.1 20 85 C13.73 85 7.46 85 1 85 C-0.76582363 83.23417637 -0.11985561 80.89628001 -0.12442017 78.54483032 C-0.12082489 77.76296356 -0.11722961 76.9810968 -0.11352539 76.17553711 C-0.11367142 75.35609116 -0.11381744 74.5366452 -0.1139679 73.69236755 C-0.11326852 70.97066647 -0.10547501 68.24903295 -0.09765625 65.52734375 C-0.09579216 63.64547259 -0.09436821 61.76360094 -0.09336853 59.88172913 C-0.08954267 54.91851471 -0.07971181 49.95532936 -0.06866455 44.99212646 C-0.0584519 39.93160394 -0.05387122 34.87107673 -0.04882812 29.81054688 C-0.03808959 19.87368306 -0.02049225 9.93684849 0 0 Z " fill="#E1E0DE" transform="translate(568,663)"/>
<path d="M0 0 C6.27 0 12.54 0 19 0 C19.02256153 10.91769767 19.04092121 21.83537995 19.05181217 32.75309563 C19.05703837 37.82222228 19.06413128 42.8913322 19.07543945 47.96044922 C19.08627763 52.84928681 19.09227882 57.73810827 19.09487724 62.62695694 C19.09672981 64.49533467 19.10034721 66.36371148 19.10573006 68.23208237 C19.11295281 70.84207846 19.11399041 73.45200729 19.11352539 76.06201172 C19.11712067 76.8402832 19.12071594 77.61855469 19.12442017 78.42041016 C19.11405216 83.77189568 19.11405216 83.77189568 18 86 C12.06 86 6.12 86 0 86 C0 57.62 0 29.24 0 0 Z " fill="#E9E8E6" transform="translate(314,770)"/>
<path d="M0 0 C0.66 0 1.32 0 2 0 C3.28948279 3.76937464 4.570977 7.54136157 5.84521484 11.31591797 C6.2795637 12.59888279 6.71606654 13.88112052 7.15478516 15.16259766 C7.78597355 17.00749978 8.40871559 18.85528477 9.03125 20.703125 C9.40830078 21.81333008 9.78535156 22.92353516 10.17382812 24.06738281 C11 27 11 27 11 31 C3.41 31 -4.18 31 -12 31 C-8.625 19.75 -8.625 19.75 -6.73828125 15.4296875 C-6.34189453 14.51445313 -5.94550781 13.59921875 -5.53710938 12.65625 C-5.13298828 11.7384375 -4.72886719 10.820625 -4.3125 9.875 C-3.89677734 8.91851563 -3.48105469 7.96203125 -3.05273438 6.9765625 C-2.04015854 4.64880196 -1.02253838 2.32339703 0 0 Z " fill="#121212" transform="translate(408,684)"/>
<path d="M0 0 C6.6 0 13.2 0 20 0 C20 27.06 20 54.12 20 82 C19.67 82 19.34 82 19 82 C19 55.27 19 28.54 19 1 C18.01 1.33 17.02 1.66 16 2 C11.38 2 6.76 2 2 2 C2 29.06 2 56.12 2 84 C1.34 84 0.68 84 0 84 C0 56.28 0 28.56 0 0 Z " fill="#F7F7F6" transform="translate(568,663)"/>
<path d="M0 0 C1.6874269 0.00015917 3.37485866 0.00585622 5.06225586 0.01586914 C6.39189613 0.01799156 6.39189613 0.01799156 7.74839783 0.02015686 C10.59133215 0.02577324 13.43418892 0.03832848 16.27709961 0.05102539 C18.19962452 0.05603828 20.12215065 0.06060155 22.04467773 0.06469727 C26.7680151 0.07574798 31.49129419 0.09302356 36.21459961 0.11352539 C36.21459961 0.44352539 36.21459961 0.77352539 36.21459961 1.11352539 C33.27737021 1.28684978 30.33999203 1.4521267 27.40209961 1.61352539 C26.21003906 1.68506836 26.21003906 1.68506836 24.99389648 1.75805664 C15.70335834 2.25639968 6.57016028 2.11352539 -2.78540039 2.11352539 C-2.78540039 29.50352539 -2.78540039 56.89352539 -2.78540039 85.11352539 C9.42459961 85.11352539 21.63459961 85.11352539 34.21459961 85.11352539 C34.21459961 85.44352539 34.21459961 85.77352539 34.21459961 86.11352539 C21.34459961 86.11352539 8.47459961 86.11352539 -4.78540039 86.11352539 C-4.8255092 64.9405306 -4.8255092 64.9405306 -4.83422852 55.94750977 C-4.8402171 49.79995872 -4.84731779 43.6524225 -4.86083984 37.50488281 C-4.87166826 32.55121129 -4.87767713 27.59755566 -4.88027763 22.64387321 C-4.88213197 20.74954923 -4.88575273 18.85522615 -4.89113045 16.96090889 C-4.89834028 14.31718153 -4.89939136 11.67352069 -4.89892578 9.02978516 C-4.90252106 8.23856766 -4.90611633 7.44735016 -4.90982056 6.63215637 C-4.89737936 0.146874 -4.89737936 0.146874 0 0 Z " fill="#ECECEB" transform="translate(227.785400390625,770.886474609375)"/>
<path d="M0 0 C6.27 0 12.54 0 19 0 C19 28.38 19 56.76 19 86 C12.73 86 6.46 86 0 86 C0.495 85.01 0.495 85.01 1 84 C6.61 84.33 12.22 84.66 18 85 C18 57.61 18 30.22 18 2 C12.39 2 6.78 2 1 2 C1.01047363 3.23153809 1.02094727 4.46307617 1.03173828 5.73193359 C1.06787089 10.29033515 1.09087585 14.84872398 1.10986328 19.40722656 C1.11993627 21.38218309 1.13359521 23.35712466 1.15087891 25.33203125 C1.17507039 28.16670418 1.18646991 31.00118038 1.1953125 33.8359375 C1.20563507 34.72243988 1.21595764 35.60894226 1.22659302 36.52230835 C1.2269907 38.68285952 1.12272534 40.84293718 1 43 C0.34 43.66 -0.32 44.32 -1 45 C-1.02527124 38.75204325 -1.04283344 32.50409959 -1.05493164 26.25610352 C-1.05997298 24.12881986 -1.06680591 22.00153969 -1.07543945 19.87426758 C-1.08751379 16.82372174 -1.09323014 13.77322155 -1.09765625 10.72265625 C-1.10281754 9.76537125 -1.10797882 8.80808624 -1.11329651 7.8217926 C-1.11337204 6.94095505 -1.11344757 6.06011749 -1.11352539 5.15258789 C-1.115746 4.37315323 -1.11796661 3.59371857 -1.12025452 2.79066467 C-1 1 -1 1 0 0 Z " fill="#F1F1F0" transform="translate(528,662)"/>
<path d="M0 0 C0.99 0 1.98 0 3 0 C3 20.79 3 41.58 3 63 C12.24 63 21.48 63 31 63 C30.34 63.99 29.68 64.98 29 66 C19.43 66 9.86 66 0 66 C0 44.22 0 22.44 0 0 Z " fill="#2E2E2D" transform="translate(710,664)"/>
<path d="M0 0 C6.2296431 -0.0493392 12.45917315 -0.08569057 18.68896484 -0.10986328 C20.8094277 -0.11993751 22.92987661 -0.13359733 25.05029297 -0.15087891 C28.09345943 -0.17506489 31.13644266 -0.18646869 34.1796875 -0.1953125 C35.13181122 -0.20563507 36.08393494 -0.21595764 37.06491089 -0.22659302 C37.94567291 -0.22674408 38.82643494 -0.22689514 39.73388672 -0.22705078 C40.51110077 -0.231492 41.28831482 -0.23593323 42.08908081 -0.24050903 C44 0 44 0 46 2 C31.15 2 16.3 2 1 2 C1.66 3.32 2.32 4.64 3 6 C3.24050903 9.06256104 3.24050903 9.06256104 3.22705078 12.69628906 C3.22734283 13.36011597 3.22763489 14.02394287 3.22793579 14.70788574 C3.22654658 16.89393351 3.21100503 19.07963704 3.1953125 21.265625 C3.19158091 22.78448297 3.18873463 24.30334335 3.18673706 25.82220459 C3.1791121 29.81382937 3.15947344 33.80530789 3.1373291 37.796875 C3.11684614 41.87237571 3.10773011 45.94790012 3.09765625 50.0234375 C3.07622641 58.01569201 3.04210426 66.00782779 3 74 C2.67 74 2.34 74 2 74 C1.67 55.85 1.34 37.7 1 19 C0.67 19 0.34 19 0 19 C0 12.73 0 6.46 0 0 Z " fill="#DCDCDB" transform="translate(277,663)"/>
<path d="M0 0 C0.33 0 0.66 0 1 0 C1 27.72 1 55.44 1 84 C-1.475 84.495 -1.475 84.495 -4 85 C-3.505 84.01 -3.505 84.01 -3 83 C-2.88812542 80.44802841 -2.83534615 77.92197071 -2.82641602 75.36914062 C-2.8163855 74.1884626 -2.8163855 74.1884626 -2.80615234 72.9839325 C-2.79208835 71.27223772 -2.78019861 69.56052404 -2.77020454 67.84880066 C-2.75382498 65.14282344 -2.73058988 62.43698688 -2.70530701 59.7310791 C-2.6344369 52.03677341 -2.57431508 44.342411 -2.52319336 36.64794922 C-2.49146448 31.9447416 -2.45020734 27.24169646 -2.40299797 22.53862 C-2.386944 20.74284273 -2.37463821 18.94702802 -2.36609077 17.15119934 C-2.35398456 14.64425072 -2.32985622 12.13768676 -2.30297852 9.63085938 C-2.30238937 8.8837822 -2.30180023 8.13670502 -2.30119324 7.36698914 C-2.22789864 2.22789864 -2.22789864 2.22789864 0 0 Z " fill="#DCDBDA" transform="translate(332,770)"/>
<path d="M0 0 C1.58206057 0.00667536 3.16410534 0.0186375 4.74609375 0.03515625 C5.55240234 0.03966797 6.35871094 0.04417969 7.18945312 0.04882812 C9.18753131 0.06065107 11.18557158 0.07858711 13.18359375 0.09765625 C12.85359375 1.08765625 12.52359375 2.07765625 12.18359375 3.09765625 C7.56359375 3.09765625 2.94359375 3.09765625 -1.81640625 3.09765625 C-1.81640625 19.92765625 -1.81640625 36.75765625 -1.81640625 54.09765625 C-2.80640625 53.76765625 -3.79640625 53.43765625 -4.81640625 53.09765625 C-4.84167317 45.71037523 -4.85923785 38.32310527 -4.87133789 30.93579102 C-4.87637988 28.4204873 -4.88321328 25.90518653 -4.8918457 23.38989258 C-4.90391719 19.7833585 -4.90963574 16.17686302 -4.9140625 12.5703125 C-4.91922379 11.43803726 -4.92438507 10.30576202 -4.92970276 9.13917542 C-4.92977829 8.09817184 -4.92985382 7.05716827 -4.92993164 5.98461914 C-4.93215225 5.06306534 -4.93437286 4.14151154 -4.93666077 3.19203186 C-4.7227352 -0.53373669 -3.91769951 0.1002482 0 0 Z " fill="#C8C7C6" transform="translate(511.81640625,769.90234375)"/>
<path d="M0 0 C1.58206057 0.00667536 3.16410534 0.0186375 4.74609375 0.03515625 C5.55240234 0.03966797 6.35871094 0.04417969 7.18945312 0.04882812 C9.18753131 0.06065107 11.18557158 0.07858711 13.18359375 0.09765625 C12.85359375 0.75765625 12.52359375 1.41765625 12.18359375 2.09765625 C7.23359375 2.09765625 2.28359375 2.09765625 -2.81640625 2.09765625 C-2.81640625 19.25765625 -2.81640625 36.41765625 -2.81640625 54.09765625 C-3.14640625 54.09765625 -3.47640625 54.09765625 -3.81640625 54.09765625 C-3.98421621 46.56809366 -4.14418262 39.03839434 -4.29858398 31.50854492 C-4.3520956 28.94470406 -4.40743168 26.38090062 -4.46459961 23.81713867 C-4.54625568 20.14119542 -4.62144157 16.46516938 -4.6953125 12.7890625 C-4.7358651 11.05783897 -4.7358651 11.05783897 -4.77723694 9.29164124 C-4.79733322 8.23061691 -4.8174295 7.16959259 -4.83813477 6.07641602 C-4.85812027 5.13709732 -4.87810577 4.19777863 -4.8986969 3.22999573 C-4.75353322 -0.53152811 -3.93913634 0.10079673 0 0 Z " fill="#EEEEED" transform="translate(783.81640625,769.90234375)"/>
<path d="M0 0 C2.33294775 -0.04241723 4.66702567 -0.04092937 7 0 C10.54338194 3.54338194 8 9.98890121 8 15 C-5.86 14.67 -19.72 14.34 -34 14 C-34 13.67 -34 13.34 -34 13 C-21.13 13 -8.26 13 5 13 C5 9.04 5 5.08 5 1 C3.35 1 1.7 1 0 1 C0 0.67 0 0.34 0 0 Z " fill="#D3D3D1" transform="translate(663,663)"/>
<path d="M0 0 C0.99 0.33 1.98 0.66 3 1 C2.34 17.83 1.68 34.66 1 52 C0.67 52 0.34 52 0 52 C0 34.84 0 17.68 0 0 Z " fill="#3C3B3B" transform="translate(487,696)"/>
<path d="M0 0 C0.33 0.66 0.66 1.32 1 2 C1.66 2 2.32 2 3 2 C3.0291544 5.39581516 3.04685068 8.79159786 3.0625 12.1875 C3.07087891 13.14720703 3.07925781 14.10691406 3.08789062 15.09570312 C3.09111328 16.02705078 3.09433594 16.95839844 3.09765625 17.91796875 C3.10289307 18.77156982 3.10812988 19.6251709 3.11352539 20.50463867 C2.99579323 23.09246747 2.57107044 25.47661953 2 28 C1.67 28 1.34 28 1 28 C-0.25406138 22.21354356 -0.11186913 16.51131884 -0.0625 10.625 C-0.05798828 9.60277344 -0.05347656 8.58054687 -0.04882812 7.52734375 C-0.037103 5.01816806 -0.02069176 2.5091151 0 0 Z " fill="#D9D8D7" transform="translate(625,403)"/>
<path d="M0 0 C0.66 0 1.32 0 2 0 C2 5.94 2 11.88 2 18 C-7.57 18 -17.14 18 -27 18 C-27 17.67 -27 17.34 -27 17 C-18.42 16.67 -9.84 16.34 -1 16 C-0.67 10.72 -0.34 5.44 0 0 Z " fill="#ABAAA9" transform="translate(748,730)"/>
<path d="M0 0 C4.68172416 7.02258624 4.26552863 15.39562476 4.125 23.5625 C4.11597656 24.57119141 4.10695313 25.57988281 4.09765625 26.61914062 C4.07433356 29.07968457 4.04160763 31.53970896 4 34 C0.71383394 30.49577636 0.58816198 27.7612455 0.48828125 23.046875 C0.47033005 22.38665344 0.45237885 21.72643188 0.43388367 21.04620361 C0.37991191 18.94753311 0.34592957 16.84908823 0.3125 14.75 C0.27931505 13.32288536 0.24482429 11.89580044 0.20898438 10.46875 C0.1241953 6.97938348 0.05732112 3.48993809 0 0 Z " fill="#DDDCDB" transform="translate(573,392)"/>
<path d="M0 0 C0.66 0 1.32 0 2 0 C3.0859375 1.40625 3.0859375 1.40625 4.375 3.5 C7.89822738 8.99028981 11.8164373 14.14505432 15.77294922 19.32617188 C21.29001277 26.5924618 21.29001277 26.5924618 23 30 C22.67 30.66 22.34 31.32 22 32 C18.54651383 27.31988563 15.09528942 22.63812818 11.6484375 17.953125 C9.53639826 15.08266672 7.41938746 12.21628411 5.2890625 9.359375 C4.57492187 8.39515625 3.86078125 7.4309375 3.125 6.4375 C2.50882813 5.61121094 1.89265625 4.78492188 1.2578125 3.93359375 C0 2 0 2 0 0 Z " fill="#E7E6E6" transform="translate(757,824)"/>
<path d="M0 0 C0.33 0 0.66 0 1 0 C1 3.63 1 7.26 1 11 C6.61 11 12.22 11 18 11 C17.67 11.66 17.34 12.32 17 13 C14.18743719 13.02684312 11.37512759 13.04676188 8.5625 13.0625 C7.76005859 13.07087891 6.95761719 13.07925781 6.13085938 13.08789062 C4.08704779 13.0965143 2.04316098 13.0522815 0 13 C-0.33 12.67 -0.66 12.34 -1 12 C-0.90997602 9.97591245 -0.75358962 7.95455713 -0.5625 5.9375 C-0.46066406 4.83277344 -0.35882813 3.72804688 -0.25390625 2.58984375 C-0.17011719 1.73519531 -0.08632813 0.88054688 0 0 Z " fill="#E8E7E6" transform="translate(468,736)"/>
<path d="M0 0 C5.28 0.33 10.56 0.66 16 1 C16 1.33 16 1.66 16 2 C11.38 2 6.76 2 2 2 C2 12.56 2 23.12 2 34 C1.67 34 1.34 34 1 34 C0.67 22.78 0.34 11.56 0 0 Z " fill="#ECEAE8" transform="translate(568,663)"/>
<path d="M0 0 C6.6 0 13.2 0 20 0 C20 0.99 20 1.98 20 3 C13.4 3 6.8 3 0 3 C0 2.01 0 1.02 0 0 Z " fill="#F3F3F3" transform="translate(433,745)"/>
<path d="M0 0 C5 5 5 5 6 7 C5.525625 7.391875 5.05125 7.78375 4.5625 8.1875 C2.64820367 10.40808374 2.38733012 12.13375709 2 15 C1.67 15 1.34 15 1 15 C0.67 10.05 0.34 5.1 0 0 Z " fill="#181817" transform="translate(466,801)"/>
<path d="M0 0 C0 0.66 0 1.32 0 2 C-7.45614351 4.66290839 -13.24248246 5.12053031 -21 4 C-21 3.67 -21 3.34 -21 3 C-19.80503906 2.92652344 -19.80503906 2.92652344 -18.5859375 2.8515625 C-12.31158208 2.40884642 -6.06821199 0 0 0 Z " fill="#262626" transform="translate(410,855)"/>
<path d="M0 0 C0.99 0.33 1.98 0.66 3 1 C3 4.96 3 8.92 3 13 C2.01 13.33 1.02 13.66 0 14 C0 9.38 0 4.76 0 0 Z " fill="#D5D4D3" transform="translate(703,807)"/>
<path d="M0 0 C0.33 0.66 0.66 1.32 1 2 C6.94 1.67 12.88 1.34 19 1 C19 1.66 19 2.32 19 3 C9.595 3.495 9.595 3.495 0 4 C0 2.68 0 1.36 0 0 Z " fill="#F3F3F2" transform="translate(363,745)"/>
<path d="M0 0 C0.99 0.33 1.98 0.66 3 1 C0.48933531 4.05906926 -1.90059933 4.75191278 -5.6875 5.6875 C-6.68136719 5.93886719 -7.67523437 6.19023438 -8.69921875 6.44921875 C-9.45847656 6.63097656 -10.21773437 6.81273437 -11 7 C-11.33 6.01 -11.66 5.02 -12 4 C-10.68 4.33 -9.36 4.66 -8 5 C-8 4.34 -8 3.68 -8 3 C-7.05125 2.690625 -6.1025 2.38125 -5.125 2.0625 C-2.13919592 1.12605258 -2.13919592 1.12605258 0 0 Z " fill="#DDDDDB" transform="translate(593,624)"/>
<path d="M0 0 C3.63 0 7.26 0 11 0 C11.33 0.99 11.66 1.98 12 3 C8.37 3 4.74 3 1 3 C0.67 2.01 0.34 1.02 0 0 Z " fill="#D8D8D7" transform="translate(569,855)"/>
<path d="M0 0 C3.14624993 -0.26218749 4.61837017 -0.24754367 7.3125 1.5 C8.1478125 2.2425 8.1478125 2.2425 9 3 C6.69 3 4.38 3 2 3 C2 6.63 2 10.26 2 14 C1.67 14 1.34 14 1 14 C1.01160156 13.15695312 1.02320313 12.31390625 1.03515625 11.4453125 C1.04417969 10.34960938 1.05320312 9.25390625 1.0625 8.125 C1.07410156 7.03445313 1.08570313 5.94390625 1.09765625 4.8203125 C1.19744303 2.04822454 1.19744303 2.04822454 0 0 Z " fill="#DFDEDC" transform="translate(314,770)"/>
<path d="M0 0 C1.11126362 3.33379087 0.95133201 5.62709561 0 9 C-0.99 10.485 -0.99 10.485 -2 12 C-2.66 12 -3.32 12 -4 12 C-3.71788123 10.3733152 -3.42397625 8.74867104 -3.125 7.125 C-2.96257812 6.22007812 -2.80015625 5.31515625 -2.6328125 4.3828125 C-2 2 -2 2 0 0 Z " fill="#191819" transform="translate(302,819)"/>
<path d="M0 0 C0.99 0 1.98 0 3 0 C3 3.96 3 7.92 3 12 C2.01 11.34 1.02 10.68 0 10 C-0.29296875 7.6171875 -0.29296875 7.6171875 -0.1875 4.875 C-0.16042969 3.96492187 -0.13335937 3.05484375 -0.10546875 2.1171875 C-0.07066406 1.41851563 -0.03585937 0.71984375 0 0 Z " fill="#1A1A19" transform="translate(356,702)"/>
<path d="M0 0 C1.27310312 0.93441535 2.543388 1.87267111 3.8125 2.8125 C4.52019531 3.33457031 5.22789062 3.85664062 5.95703125 4.39453125 C7.78531393 5.83128877 9.39896688 7.31815763 11 9 C10.67 9.66 10.34 10.32 10 11 C8.32742645 9.5484451 6.66208242 8.08855591 5 6.625 C3.6078125 5.40683594 3.6078125 5.40683594 2.1875 4.1640625 C1.465625 3.44992187 0.74375 2.73578125 0 2 C0 1.34 0 0.68 0 0 Z " fill="#090908" transform="translate(625,840)"/>
<path d="M0 0 C4.98012761 1.50912958 8.24259942 4.55661849 12 8 C11.34 8.66 10.68 9.32 10 10 C8.33037631 8.52417192 6.6643694 7.04425109 5 5.5625 C4.071875 4.73878906 3.14375 3.91507812 2.1875 3.06640625 C1.465625 2.38449219 0.74375 1.70257813 0 1 C0 0.67 0 0.34 0 0 Z " fill="#EBEBEA" transform="translate(611,273)"/>
<path d="M0 0 C1.32 0.66 2.64 1.32 4 2 C3.0409375 2.6496875 3.0409375 2.6496875 2.0625 3.3125 C-0.26746003 4.91239177 -0.26746003 4.91239177 -1 8 C-1.99 8.33 -2.98 8.66 -4 9 C-2.94124926 5.59687262 -1.99097846 2.98646769 0 0 Z " fill="#191819" transform="translate(389,732)"/>
<path d="M0 0 C0.99 0.33 1.98 0.66 3 1 C2.67 2.65 2.34 4.3 2 6 C1.34 6 0.68 6 0 6 C0.33 7.32 0.66 8.64 1 10 C0.01 9.67 -0.98 9.34 -2 9 C-1.34 6.03 -0.68 3.06 0 0 Z " fill="#DDDCDB" transform="translate(664,467)"/>
<path d="M0 0 C0.66 0.33 1.32 0.66 2 1 C0.8803014 2.00593243 -0.2459412 3.0045849 -1.375 4 C-2.00148438 4.556875 -2.62796875 5.11375 -3.2734375 5.6875 C-5 7 -5 7 -7 7 C-7 6.01 -7 5.02 -7 4 C-1.7265625 0.77734375 -1.7265625 0.77734375 0 0 Z " fill="#ECECEB" transform="translate(558,772)"/>
<path d="M0 0 C2.97 0 5.94 0 9 0 C8.01 1.485 8.01 1.485 7 3 C3.875 3.1875 3.875 3.1875 1 3 C0.67 2.01 0.34 1.02 0 0 Z " fill="#DCDCDA" transform="translate(540,635)"/>
<path d="M0 0 C-1.45255699 3.82946843 -3.42895561 5.12050295 -7 7 C-3.86206897 0 -3.86206897 0 0 0 Z " fill="#0C0C0C" transform="translate(602,846)"/>
<path d="M0 0 C1.32 0.99 2.64 1.98 4 3 C4.66 2.67 5.32 2.34 6 2 C6 3.65 6 5.3 6 7 C3.00675737 5.9024777 2.15389099 5.32317108 0.75 2.375 C0.5025 1.59125 0.255 0.8075 0 0 Z " fill="#2C2C2B" transform="translate(522,709)"/>
<path d="M0 0 C0.33 0 0.66 0 1 0 C1.1953125 6.0546875 1.1953125 6.0546875 1 8 C0.34 8.66 -0.32 9.32 -1 10 C-2 9 -2 9 -2.1875 6.125 C-2 3 -2 3 0 0 Z " fill="#DEDDDB" transform="translate(524,618)"/>
<path d="M0 0 C0.66 0 1.32 0 2 0 C2 2.64 2 5.28 2 8 C1.01 7.67 0.02 7.34 -1 7 C-1.04254356 5.00045254 -1.04080783 2.99958364 -1 1 C-0.67 0.67 -0.34 0.34 0 0 Z " fill="#1A1A1A" transform="translate(729,371)"/>
<path d="M0 0 C0.99 0.33 1.98 0.66 3 1 C2.67 3.97 2.34 6.94 2 10 C1.67 10 1.34 10 1 10 C0.67 6.7 0.34 3.4 0 0 Z " fill="#1B1B1B" transform="translate(73,788)"/>
<path d="M0 0 C0 0.99 0 1.98 0 3 C-2.97 2.67 -5.94 2.34 -9 2 C-5.5647952 -0.29013653 -4.014669 -0.17842973 0 0 Z " fill="#313030" transform="translate(575,785)"/>
<path d="M0 0 C0.33 0 0.66 0 1 0 C1.33 2.97 1.66 5.94 2 9 C1.01 9 0.02 9 -1 9 C-0.67 6.03 -0.34 3.06 0 0 Z " fill="#1F1E1E" transform="translate(665,358)"/>
</svg>
